<svg xmlns="http://www.w3.org/2000/svg" xmlns:xlink="http://www.w3.org/1999/xlink" width="500" zoomAndPan="magnify" viewBox="0 0 375 374.999991" height="500" preserveAspectRatio="xMidYMid meet" version="1.0"><defs><g/><clipPath id="2176ec3d73"><path d="M 1.089844 0.476562 L 19.976562 0.476562 L 19.976562 19.363281 L 1.089844 19.363281 Z M 1.089844 0.476562 " clip-rule="nonzero"/></clipPath><clipPath id="16967cd2a0"><path d="M 10.53125 0.476562 C 5.316406 0.476562 1.089844 4.703125 1.089844 9.917969 C 1.089844 15.132812 5.316406 19.363281 10.53125 19.363281 C 15.75 19.363281 19.976562 15.132812 19.976562 9.917969 C 19.976562 4.703125 15.75 0.476562 10.53125 0.476562 Z M 10.53125 0.476562 " clip-rule="nonzero"/></clipPath><clipPath id="d816f65f1c"><path d="M 0.0898438 0.476562 L 18.976562 0.476562 L 18.976562 19.363281 L 0.0898438 19.363281 Z M 0.0898438 0.476562 " clip-rule="nonzero"/></clipPath><clipPath id="ede8c3b7bf"><path d="M 9.53125 0.476562 C 4.316406 0.476562 0.0898438 4.703125 0.0898438 9.917969 C 0.0898438 15.132812 4.316406 19.363281 9.53125 19.363281 C 14.75 19.363281 18.976562 15.132812 18.976562 9.917969 C 18.976562 4.703125 14.75 0.476562 9.53125 0.476562 Z M 9.53125 0.476562 " clip-rule="nonzero"/></clipPath><clipPath id="8fd456e988"><rect x="0" width="19" y="0" height="20"/></clipPath><clipPath id="af64652602"><path d="M 4.066406 3.453125 L 17 3.453125 L 17 16.382812 L 4.066406 16.382812 Z M 4.066406 3.453125 " clip-rule="nonzero"/></clipPath><clipPath id="6f5e0c2a89"><path d="M 10.53125 3.453125 C 6.960938 3.453125 4.066406 6.347656 4.066406 9.917969 C 4.066406 13.488281 6.960938 16.382812 10.53125 16.382812 C 14.105469 16.382812 17 13.488281 17 9.917969 C 17 6.347656 14.105469 3.453125 10.53125 3.453125 Z M 10.53125 3.453125 " clip-rule="nonzero"/></clipPath><clipPath id="8372c7abd8"><path d="M 0.0664062 0.453125 L 13 0.453125 L 13 13.382812 L 0.0664062 13.382812 Z M 0.0664062 0.453125 " clip-rule="nonzero"/></clipPath><clipPath id="542f6adbef"><path d="M 6.53125 0.453125 C 2.960938 0.453125 0.0664062 3.347656 0.0664062 6.917969 C 0.0664062 10.488281 2.960938 13.382812 6.53125 13.382812 C 10.105469 13.382812 13 10.488281 13 6.917969 C 13 3.347656 10.105469 0.453125 6.53125 0.453125 Z M 6.53125 0.453125 " clip-rule="nonzero"/></clipPath><clipPath id="46d4526dc1"><rect x="0" width="13" y="0" height="14"/></clipPath><clipPath id="a9f76584fe"><rect x="0" width="21" y="0" height="20"/></clipPath><clipPath id="68e5002fb5"><path d="M 0.644531 0.476562 L 19.53125 0.476562 L 19.53125 19.363281 L 0.644531 19.363281 Z M 0.644531 0.476562 " clip-rule="nonzero"/></clipPath><clipPath id="8b544927d9"><path d="M 10.085938 0.476562 C 4.871094 0.476562 0.644531 4.703125 0.644531 9.917969 C 0.644531 15.132812 4.871094 19.363281 10.085938 19.363281 C 15.300781 19.363281 19.53125 15.132812 19.53125 9.917969 C 19.53125 4.703125 15.300781 0.476562 10.085938 0.476562 Z M 10.085938 0.476562 " clip-rule="nonzero"/></clipPath><clipPath id="0b1217b632"><path d="M 0.644531 0.476562 L 19.53125 0.476562 L 19.53125 19.363281 L 0.644531 19.363281 Z M 0.644531 0.476562 " clip-rule="nonzero"/></clipPath><clipPath id="93e372fdf1"><path d="M 10.085938 0.476562 C 4.871094 0.476562 0.644531 4.703125 0.644531 9.917969 C 0.644531 15.132812 4.871094 19.363281 10.085938 19.363281 C 15.300781 19.363281 19.53125 15.132812 19.53125 9.917969 C 19.53125 4.703125 15.300781 0.476562 10.085938 0.476562 Z M 10.085938 0.476562 " clip-rule="nonzero"/></clipPath><clipPath id="702fb4d50c"><rect x="0" width="20" y="0" height="20"/></clipPath><clipPath id="223267d5f9"><path d="M 3.621094 3.453125 L 16.550781 3.453125 L 16.550781 16.382812 L 3.621094 16.382812 Z M 3.621094 3.453125 " clip-rule="nonzero"/></clipPath><clipPath id="697da76c4c"><path d="M 10.085938 3.453125 C 6.515625 3.453125 3.621094 6.347656 3.621094 9.917969 C 3.621094 13.488281 6.515625 16.382812 10.085938 16.382812 C 13.65625 16.382812 16.550781 13.488281 16.550781 9.917969 C 16.550781 6.347656 13.65625 3.453125 10.085938 3.453125 Z M 10.085938 3.453125 " clip-rule="nonzero"/></clipPath><clipPath id="d624ecf26d"><path d="M 0.621094 0.453125 L 13.550781 0.453125 L 13.550781 13.382812 L 0.621094 13.382812 Z M 0.621094 0.453125 " clip-rule="nonzero"/></clipPath><clipPath id="4770bb462e"><path d="M 7.085938 0.453125 C 3.515625 0.453125 0.621094 3.347656 0.621094 6.917969 C 0.621094 10.488281 3.515625 13.382812 7.085938 13.382812 C 10.65625 13.382812 13.550781 10.488281 13.550781 6.917969 C 13.550781 3.347656 10.65625 0.453125 7.085938 0.453125 Z M 7.085938 0.453125 " clip-rule="nonzero"/></clipPath><clipPath id="dcb666d358"><rect x="0" width="14" y="0" height="14"/></clipPath><clipPath id="ae70e5e599"><rect x="0" width="20" y="0" height="20"/></clipPath><clipPath id="e429c22713"><path d="M 66 75.957031 L 99 75.957031 L 99 109 L 66 109 Z M 66 75.957031 " clip-rule="nonzero"/></clipPath><clipPath id="d600390925"><path d="M 266 75.957031 L 300 75.957031 L 300 109 L 266 109 Z M 266 75.957031 " clip-rule="nonzero"/></clipPath><clipPath id="f79a185cd0"><path d="M 132 142 L 234 142 L 234 237.207031 L 132 237.207031 Z M 132 142 " clip-rule="nonzero"/></clipPath><clipPath id="70b59bf0af"><path d="M 154.75 13.910156 L 211 13.910156 L 211 93.410156 L 154.75 93.410156 Z M 154.75 13.910156 " clip-rule="nonzero"/></clipPath><clipPath id="7f179e9147"><path d="M 211.003906 42.09375 C 211.003906 61.65625 182.875 93.339844 182.875 93.339844 C 182.875 93.339844 181.898438 92.253906 180.3125 90.351562 C 177.539062 87.03125 172.886719 81.21875 168.308594 74.414062 C 170.4375 73.316406 172.773438 71.65625 174.425781 70.066406 C 178.726562 65.945312 181.515625 60.535156 183.457031 54.859375 C 183.652344 55 183.8125 55.136719 183.929688 55.257812 L 186.320312 57.347656 C 186.777344 57.742188 187.167969 57.660156 187.199219 57.160156 C 187.226562 56.65625 187.046875 55.808594 186.777344 55.261719 L 185.671875 52.949219 C 185.40625 52.398438 185.472656 51.550781 185.8125 51.046875 L 189.804688 45.15625 C 190.148438 44.660156 190.789062 44.585938 191.234375 44.992188 L 196.542969 49.824219 L 198.578125 51.679688 C 199.027344 52.089844 199.425781 51.933594 199.46875 51.328125 L 199.480469 51.242188 C 199.519531 50.636719 199.296875 49.730469 198.972656 49.210938 L 197.894531 47.472656 L 193.855469 40.972656 C 193.535156 40.449219 193.53125 39.621094 193.839844 39.101562 L 195.792969 35.832031 C 196.109375 35.316406 196.316406 34.398438 196.269531 33.796875 L 195.855469 31.390625 C 195.800781 30.789062 195.300781 30.503906 194.753906 30.75 L 192.480469 31.640625 C 191.929688 31.894531 191.265625 32.53125 190.988281 33.070312 L 189.132812 36.625 C 188.863281 37.167969 188.152344 37.617188 187.550781 37.636719 L 177.179688 38.316406 C 176.574219 38.34375 175.800781 38.617188 175.457031 38.933594 C 175.117188 39.261719 175.308594 39.644531 175.898438 39.785156 L 185.039062 42.128906 C 185.628906 42.277344 185.949219 42.867188 185.753906 43.441406 L 183.621094 49.835938 C 183.429688 50.410156 182.796875 50.976562 182.199219 51.089844 L 178.671875 51.8125 C 178.074219 51.9375 177.507812 52.242188 177.394531 52.5 C 177.28125 52.753906 177.679688 53.0625 178.269531 53.179688 L 180.648438 53.671875 C 180.917969 53.707031 181.238281 53.804688 181.574219 53.917969 C 175.496094 62.210938 166.804688 63.171875 161.085938 62.414062 C 157.402344 55.378906 154.75 48.191406 154.75 42.09375 C 154.75 27.421875 165.984375 15.371094 180.320312 14.085938 C 181.160156 14.011719 182.011719 13.972656 182.875 13.972656 C 189.085938 13.972656 194.824219 15.984375 199.472656 19.386719 C 199.472656 19.386719 199.472656 19.386719 199.472656 19.390625 C 206.460938 24.503906 211.003906 32.765625 211.003906 42.09375 Z M 211.003906 42.09375 " clip-rule="nonzero"/></clipPath><linearGradient x1="14.63831" gradientTransform="matrix(0.217181, 0, 0, 0.217164, 154.748368, 13.97171)" y1="-11.010041" x2="283.783413" gradientUnits="userSpaceOnUse" y2="346.829449" id="7ce64e3c6f"><stop stop-opacity="1" stop-color="rgb(5.099487%, 43.528748%, 89.7995%)" offset="0"/><stop stop-opacity="1" stop-color="rgb(5.099487%, 43.528748%, 89.7995%)" offset="0.125"/><stop stop-opacity="1" stop-color="rgb(5.099487%, 43.528748%, 89.7995%)" offset="0.15625"/><stop stop-opacity="1" stop-color="rgb(5.099487%, 43.623352%, 89.81781%)" offset="0.171875"/><stop stop-opacity="1" stop-color="rgb(5.099487%, 43.882751%, 89.871216%)" offset="0.179688"/><stop stop-opacity="1" stop-color="rgb(5.099487%, 44.213867%, 89.938354%)" offset="0.1875"/><stop stop-opacity="1" stop-color="rgb(5.099487%, 44.543457%, 90.005493%)" offset="0.195312"/><stop stop-opacity="1" stop-color="rgb(5.099487%, 44.874573%, 90.072632%)" offset="0.203125"/><stop stop-opacity="1" stop-color="rgb(5.099487%, 45.205688%, 90.139771%)" offset="0.210938"/><stop stop-opacity="1" stop-color="rgb(5.099487%, 45.536804%, 90.206909%)" offset="0.21875"/><stop stop-opacity="1" stop-color="rgb(5.099487%, 45.86792%, 90.274048%)" offset="0.226563"/><stop stop-opacity="1" stop-color="rgb(5.099487%, 46.19751%, 90.341187%)" offset="0.234375"/><stop stop-opacity="1" stop-color="rgb(5.099487%, 46.528625%, 90.408325%)" offset="0.242188"/><stop stop-opacity="1" stop-color="rgb(5.099487%, 46.859741%, 90.475464%)" offset="0.25"/><stop stop-opacity="1" stop-color="rgb(5.099487%, 47.190857%, 90.542603%)" offset="0.257812"/><stop stop-opacity="1" stop-color="rgb(5.099487%, 47.520447%, 90.609741%)" offset="0.265625"/><stop stop-opacity="1" stop-color="rgb(5.099487%, 47.851562%, 90.67688%)" offset="0.273438"/><stop stop-opacity="1" stop-color="rgb(5.099487%, 48.182678%, 90.744019%)" offset="0.28125"/><stop stop-opacity="1" stop-color="rgb(5.099487%, 48.513794%, 90.811157%)" offset="0.289062"/><stop stop-opacity="1" stop-color="rgb(5.099487%, 48.84491%, 90.878296%)" offset="0.296875"/><stop stop-opacity="1" stop-color="rgb(5.099487%, 49.1745%, 90.945435%)" offset="0.304688"/><stop stop-opacity="1" stop-color="rgb(5.099487%, 49.505615%, 91.012573%)" offset="0.3125"/><stop stop-opacity="1" stop-color="rgb(5.099487%, 49.836731%, 91.079712%)" offset="0.320312"/><stop stop-opacity="1" stop-color="rgb(5.099487%, 50.167847%, 91.145325%)" offset="0.328125"/><stop stop-opacity="1" stop-color="rgb(5.099487%, 50.497437%, 91.212463%)" offset="0.335938"/><stop stop-opacity="1" stop-color="rgb(5.099487%, 50.828552%, 91.279602%)" offset="0.34375"/><stop stop-opacity="1" stop-color="rgb(5.099487%, 51.159668%, 91.346741%)" offset="0.347694"/><stop stop-opacity="1" stop-color="rgb(5.099487%, 51.325989%, 91.38031%)" offset="0.351562"/><stop stop-opacity="1" stop-color="rgb(5.099487%, 51.490784%, 91.413879%)" offset="0.359375"/><stop stop-opacity="1" stop-color="rgb(5.099487%, 51.821899%, 91.481018%)" offset="0.367188"/><stop stop-opacity="1" stop-color="rgb(5.099487%, 52.151489%, 91.548157%)" offset="0.375"/><stop stop-opacity="1" stop-color="rgb(5.099487%, 52.482605%, 91.615295%)" offset="0.382813"/><stop stop-opacity="1" stop-color="rgb(5.099487%, 52.813721%, 91.682434%)" offset="0.390625"/><stop stop-opacity="1" stop-color="rgb(5.099487%, 53.144836%, 91.749573%)" offset="0.398438"/><stop stop-opacity="1" stop-color="rgb(5.099487%, 53.474426%, 91.816711%)" offset="0.40625"/><stop stop-opacity="1" stop-color="rgb(5.099487%, 53.805542%, 91.88385%)" offset="0.414063"/><stop stop-opacity="1" stop-color="rgb(5.099487%, 54.136658%, 91.950989%)" offset="0.421875"/><stop stop-opacity="1" stop-color="rgb(5.099487%, 54.467773%, 92.018127%)" offset="0.429688"/><stop stop-opacity="1" stop-color="rgb(5.099487%, 54.797363%, 92.085266%)" offset="0.4375"/><stop stop-opacity="1" stop-color="rgb(5.099487%, 55.128479%, 92.152405%)" offset="0.445312"/><stop stop-opacity="1" stop-color="rgb(5.099487%, 55.459595%, 92.219543%)" offset="0.453125"/><stop stop-opacity="1" stop-color="rgb(5.099487%, 55.79071%, 92.286682%)" offset="0.460938"/><stop stop-opacity="1" stop-color="rgb(5.099487%, 56.121826%, 92.353821%)" offset="0.46875"/><stop stop-opacity="1" stop-color="rgb(5.099487%, 56.451416%, 92.420959%)" offset="0.476562"/><stop stop-opacity="1" stop-color="rgb(5.099487%, 56.782532%, 92.488098%)" offset="0.484375"/><stop stop-opacity="1" stop-color="rgb(5.099487%, 57.113647%, 92.555237%)" offset="0.492187"/><stop stop-opacity="1" stop-color="rgb(5.099487%, 57.444763%, 92.622375%)" offset="0.5"/><stop stop-opacity="1" stop-color="rgb(5.099487%, 57.774353%, 92.689514%)" offset="0.507812"/><stop stop-opacity="1" stop-color="rgb(5.099487%, 58.105469%, 92.756653%)" offset="0.515625"/><stop stop-opacity="1" stop-color="rgb(5.099487%, 58.436584%, 92.823792%)" offset="0.523438"/><stop stop-opacity="1" stop-color="rgb(5.099487%, 58.7677%, 92.89093%)" offset="0.53125"/><stop stop-opacity="1" stop-color="rgb(5.099487%, 59.098816%, 92.958069%)" offset="0.539063"/><stop stop-opacity="1" stop-color="rgb(5.099487%, 59.428406%, 93.025208%)" offset="0.546875"/><stop stop-opacity="1" stop-color="rgb(5.099487%, 59.759521%, 93.092346%)" offset="0.554688"/><stop stop-opacity="1" stop-color="rgb(5.099487%, 60.090637%, 93.159485%)" offset="0.5625"/><stop stop-opacity="1" stop-color="rgb(5.099487%, 60.421753%, 93.226624%)" offset="0.570313"/><stop stop-opacity="1" stop-color="rgb(5.099487%, 60.751343%, 93.293762%)" offset="0.578125"/><stop stop-opacity="1" stop-color="rgb(5.099487%, 61.082458%, 93.360901%)" offset="0.585938"/><stop stop-opacity="1" stop-color="rgb(5.099487%, 61.413574%, 93.42804%)" offset="0.59375"/><stop stop-opacity="1" stop-color="rgb(5.099487%, 61.74469%, 93.495178%)" offset="0.601563"/><stop stop-opacity="1" stop-color="rgb(5.099487%, 62.075806%, 93.562317%)" offset="0.609375"/><stop stop-opacity="1" stop-color="rgb(5.099487%, 62.405396%, 93.629456%)" offset="0.617188"/><stop stop-opacity="1" stop-color="rgb(5.099487%, 62.736511%, 93.696594%)" offset="0.625"/><stop stop-opacity="1" stop-color="rgb(5.099487%, 63.067627%, 93.763733%)" offset="0.632812"/><stop stop-opacity="1" stop-color="rgb(5.099487%, 63.398743%, 93.830872%)" offset="0.640625"/><stop stop-opacity="1" stop-color="rgb(5.099487%, 63.728333%, 93.89801%)" offset="0.648438"/><stop stop-opacity="1" stop-color="rgb(5.099487%, 64.059448%, 93.965149%)" offset="0.652306"/><stop stop-opacity="1" stop-color="rgb(5.099487%, 64.225769%, 93.998718%)" offset="0.65625"/><stop stop-opacity="1" stop-color="rgb(5.099487%, 64.390564%, 94.032288%)" offset="0.664062"/><stop stop-opacity="1" stop-color="rgb(5.099487%, 64.72168%, 94.099426%)" offset="0.671875"/><stop stop-opacity="1" stop-color="rgb(5.099487%, 65.052795%, 94.166565%)" offset="0.679687"/><stop stop-opacity="1" stop-color="rgb(5.099487%, 65.382385%, 94.233704%)" offset="0.6875"/><stop stop-opacity="1" stop-color="rgb(5.099487%, 65.713501%, 94.300842%)" offset="0.695312"/><stop stop-opacity="1" stop-color="rgb(5.099487%, 66.044617%, 94.367981%)" offset="0.703125"/><stop stop-opacity="1" stop-color="rgb(5.099487%, 66.375732%, 94.43512%)" offset="0.710937"/><stop stop-opacity="1" stop-color="rgb(5.099487%, 66.705322%, 94.500732%)" offset="0.71875"/><stop stop-opacity="1" stop-color="rgb(5.099487%, 67.036438%, 94.567871%)" offset="0.726562"/><stop stop-opacity="1" stop-color="rgb(5.099487%, 67.367554%, 94.63501%)" offset="0.734375"/><stop stop-opacity="1" stop-color="rgb(5.099487%, 67.698669%, 94.702148%)" offset="0.742188"/><stop stop-opacity="1" stop-color="rgb(5.099487%, 68.029785%, 94.769287%)" offset="0.75"/><stop stop-opacity="1" stop-color="rgb(5.099487%, 68.359375%, 94.836426%)" offset="0.757812"/><stop stop-opacity="1" stop-color="rgb(5.099487%, 68.690491%, 94.903564%)" offset="0.765625"/><stop stop-opacity="1" stop-color="rgb(5.099487%, 69.021606%, 94.970703%)" offset="0.773438"/><stop stop-opacity="1" stop-color="rgb(5.099487%, 69.352722%, 95.037842%)" offset="0.78125"/><stop stop-opacity="1" stop-color="rgb(5.099487%, 69.682312%, 95.10498%)" offset="0.789062"/><stop stop-opacity="1" stop-color="rgb(5.099487%, 70.013428%, 95.172119%)" offset="0.796875"/><stop stop-opacity="1" stop-color="rgb(5.099487%, 70.344543%, 95.239258%)" offset="0.804688"/><stop stop-opacity="1" stop-color="rgb(5.099487%, 70.549011%, 95.280457%)" offset="0.8125"/><stop stop-opacity="1" stop-color="rgb(5.099487%, 70.588684%, 95.289612%)" offset="0.875"/><stop stop-opacity="1" stop-color="rgb(5.099487%, 70.588684%, 95.289612%)" offset="1"/></linearGradient><clipPath id="c5d19792e2"><path d="M 174 278 L 178 278 L 178 280.628906 L 174 280.628906 Z M 174 278 " clip-rule="nonzero"/></clipPath><clipPath id="fcb9237ac2"><path d="M 171.421875 249 L 176 249 L 176 277 L 171.421875 277 Z M 171.421875 249 " clip-rule="nonzero"/></clipPath><clipPath id="62d02c6d3c"><path d="M 177 240.128906 L 189 240.128906 L 189 245 L 177 245 Z M 177 240.128906 " clip-rule="nonzero"/></clipPath><clipPath id="707f9eca8f"><path d="M 189 249 L 193.921875 249 L 193.921875 277 L 189 277 Z M 189 249 " clip-rule="nonzero"/></clipPath><clipPath id="3d6cbe906d"><path d="M 188 278 L 192 278 L 192 280.628906 L 188 280.628906 Z M 188 278 " clip-rule="nonzero"/></clipPath></defs><g transform="matrix(1, 0, 0, 1, 49, 132)"><g clip-path="url(#a9f76584fe)"><g clip-path="url(#2176ec3d73)"><g clip-path="url(#16967cd2a0)"><g transform="matrix(1, 0, 0, 1, 1, 0)"><g clip-path="url(#8fd456e988)"><g clip-path="url(#d816f65f1c)"><g clip-path="url(#ede8c3b7bf)"><path fill="#fdf8e1" d="M 0.0898438 0.476562 L 18.976562 0.476562 L 18.976562 19.363281 L 0.0898438 19.363281 Z M 0.0898438 0.476562 " fill-opacity="1" fill-rule="nonzero"/></g></g></g></g></g></g><g clip-path="url(#af64652602)"><g clip-path="url(#6f5e0c2a89)"><g transform="matrix(1, 0, 0, 1, 4, 3)"><g clip-path="url(#46d4526dc1)"><g clip-path="url(#8372c7abd8)"><g clip-path="url(#542f6adbef)"><path fill="#31262a" d="M 0.0664062 0.453125 L 13 0.453125 L 13 13.382812 L 0.0664062 13.382812 Z M 0.0664062 0.453125 " fill-opacity="1" fill-rule="nonzero"/></g></g></g></g></g></g></g></g><g transform="matrix(1, 0, 0, 1, 296, 132)"><g clip-path="url(#ae70e5e599)"><g clip-path="url(#68e5002fb5)"><g clip-path="url(#8b544927d9)"><g transform="matrix(1, 0, 0, 1, -0.000000000000056843, 0)"><g clip-path="url(#702fb4d50c)"><g clip-path="url(#0b1217b632)"><g clip-path="url(#93e372fdf1)"><path fill="#fdf8e1" d="M 0.644531 0.476562 L 19.53125 0.476562 L 19.53125 19.363281 L 0.644531 19.363281 Z M 0.644531 0.476562 " fill-opacity="1" fill-rule="nonzero"/></g></g></g></g></g></g><g clip-path="url(#223267d5f9)"><g clip-path="url(#697da76c4c)"><g transform="matrix(1, 0, 0, 1, 3, 3)"><g clip-path="url(#dcb666d358)"><g clip-path="url(#d624ecf26d)"><g clip-path="url(#4770bb462e)"><path fill="#31262a" d="M 0.621094 0.453125 L 13.550781 0.453125 L 13.550781 13.382812 L 0.621094 13.382812 Z M 0.621094 0.453125 " fill-opacity="1" fill-rule="nonzero"/></g></g></g></g></g></g></g></g><path fill="#00adb8" d="M 142.164062 221.691406 C 142.164062 221.691406 104.628906 170.648438 120.351562 127.910156 C 136.058594 85.15625 182.742188 95.632812 182.742188 95.632812 C 182.742188 95.617188 146.527344 76.867188 106.828125 108.28125 C 67.113281 139.679688 50.960938 96.492188 50.960938 96.492188 C 50.960938 96.492188 43.980469 118.3125 72.121094 137.070312 C 100.265625 155.828125 85.871094 193.777344 142.164062 221.691406 Z M 142.164062 221.691406 " fill-opacity="1" fill-rule="evenodd"/><g clip-path="url(#e429c22713)"><path fill="#00adb8" d="M 82.386719 75.992188 C 91.300781 75.992188 98.519531 83.226562 98.519531 92.136719 C 98.519531 101.046875 91.300781 108.28125 82.386719 108.28125 C 73.457031 108.28125 66.238281 101.046875 66.238281 92.136719 C 66.238281 83.226562 73.457031 75.992188 82.386719 75.992188 Z M 82.386719 75.992188 " fill-opacity="1" fill-rule="evenodd"/></g><path fill="#f33c3e" d="M 223.332031 221.691406 C 223.332031 221.691406 260.851562 170.648438 245.144531 127.910156 C 229.4375 85.15625 182.742188 95.632812 182.742188 95.632812 C 182.742188 95.617188 218.96875 76.867188 258.667969 108.28125 C 298.386719 139.679688 314.519531 96.492188 314.519531 96.492188 C 314.519531 96.492188 321.5 118.3125 293.359375 137.070312 C 265.226562 155.824219 279.609375 193.777344 223.332031 221.691406 Z M 223.332031 221.691406 " fill-opacity="1" fill-rule="evenodd"/><g clip-path="url(#d600390925)"><path fill="#f33c3e" d="M 283.109375 75.992188 C 274.183594 75.992188 266.960938 83.226562 266.960938 92.136719 C 266.960938 101.046875 274.183594 108.28125 283.109375 108.28125 C 292.023438 108.28125 299.257812 101.046875 299.257812 92.136719 C 299.257812 83.226562 292.023438 75.992188 283.109375 75.992188 Z M 283.109375 75.992188 " fill-opacity="1" fill-rule="evenodd"/></g><g clip-path="url(#f79a185cd0)"><path fill="#fd9c00" d="M 135.804688 142.070312 C 144.683594 176.34375 220.800781 176.34375 229.695312 142.070312 C 248.742188 202.828125 182.742188 237.167969 182.742188 237.167969 C 182.742188 237.167969 116.738281 202.828125 135.804688 142.070312 Z M 135.804688 142.070312 " fill-opacity="1" fill-rule="evenodd"/></g><path fill="#fd9c00" d="M 182.742188 114.804688 C 193.832031 114.804688 202.820312 123.792969 202.820312 134.875 C 202.820312 145.957031 193.828125 154.949219 182.742188 154.949219 C 171.652344 154.949219 162.664062 145.957031 162.664062 134.875 C 162.664062 123.792969 171.648438 114.804688 182.742188 114.804688 Z M 182.742188 114.804688 " fill-opacity="1" fill-rule="evenodd"/><g clip-path="url(#70b59bf0af)"><g clip-path="url(#7f179e9147)"><path fill="url(#7ce64e3c6f)" d="M 154.75 13.972656 L 154.75 93.339844 L 211 93.339844 L 211 13.972656 Z M 154.75 13.972656 " fill-rule="nonzero"/></g></g><g clip-path="url(#c5d19792e2)"><path fill="#1d1d1b" d="M 174.75 278.753906 C 174.742188 278.96875 174.742188 279.179688 174.746094 279.386719 C 174.714844 279.808594 174.914062 280.105469 175.324219 280.230469 C 175.707031 280.332031 176.15625 280.539062 176.542969 280.367188 C 176.894531 280.195312 177.027344 279.480469 177.0625 278.613281 C 176.492188 278.769531 175.863281 278.773438 175.285156 278.789062 C 175.113281 278.78125 174.933594 278.773438 174.75 278.753906 Z M 174.75 278.753906 " fill-opacity="1" fill-rule="nonzero"/></g><g clip-path="url(#fcb9237ac2)"><path fill="#1d1d1b" d="M 174.476562 276.21875 C 174.507812 276.226562 174.539062 276.234375 174.570312 276.242188 C 174.609375 276.25 174.652344 276.257812 174.691406 276.265625 C 174.707031 276.265625 174.726562 276.269531 174.742188 276.273438 C 174.777344 276.277344 174.8125 276.285156 174.851562 276.289062 C 174.867188 276.292969 174.886719 276.292969 174.902344 276.296875 C 174.988281 276.308594 175.074219 276.316406 175.160156 276.324219 C 175.289062 276.324219 175.414062 276.328125 175.542969 276.332031 C 175.539062 276.3125 175.535156 276.292969 175.535156 276.273438 C 175.542969 275.410156 175.546875 274.546875 175.554688 273.683594 C 175.5625 272.503906 175.574219 271.328125 175.582031 270.152344 C 175.59375 268.960938 175.601562 267.769531 175.609375 266.574219 C 175.621094 265.417969 175.628906 264.257812 175.636719 263.097656 C 175.648438 261.890625 175.65625 260.679688 175.667969 259.472656 C 175.675781 258.261719 175.6875 257.054688 175.695312 255.847656 C 175.703125 254.621094 175.714844 253.394531 175.722656 252.164062 C 175.726562 251.632812 175.730469 251.105469 175.738281 250.574219 C 175.738281 250.320312 175.742188 250.066406 175.742188 249.8125 C 175.742188 249.640625 175.742188 249.46875 175.746094 249.292969 C 175.636719 249.296875 175.527344 249.300781 175.421875 249.308594 C 175.320312 249.316406 175.214844 249.324219 175.109375 249.332031 C 175.078125 249.351562 175.035156 249.359375 174.996094 249.359375 C 174.972656 249.359375 174.949219 249.355469 174.925781 249.351562 C 174.910156 249.351562 174.894531 249.351562 174.878906 249.355469 C 174.699219 249.375 174.523438 249.402344 174.375 249.429688 C 174.117188 249.484375 173.863281 249.542969 173.613281 249.625 C 173.449219 249.679688 173.292969 249.742188 173.140625 249.816406 C 173.023438 249.875 172.910156 249.941406 172.800781 250.011719 C 172.703125 250.078125 172.609375 250.148438 172.519531 250.226562 C 172.460938 250.28125 172.402344 250.335938 172.347656 250.398438 C 172.300781 250.457031 172.253906 250.515625 172.210938 250.578125 C 172.152344 250.667969 172.101562 250.757812 172.054688 250.851562 C 172.054688 250.855469 172.050781 250.855469 172.050781 250.859375 L 172.039062 250.882812 C 171.996094 250.976562 171.957031 251.074219 171.921875 251.171875 C 171.878906 251.300781 171.84375 251.4375 171.8125 251.574219 C 171.785156 251.730469 171.761719 251.886719 171.746094 252.046875 C 171.742188 252.109375 171.742188 252.171875 171.742188 252.234375 C 171.75 252.257812 171.753906 252.28125 171.753906 252.308594 C 171.753906 252.332031 171.753906 252.355469 171.753906 252.382812 C 171.761719 252.414062 171.757812 252.445312 171.753906 252.480469 C 171.746094 253.382812 171.734375 254.285156 171.726562 255.191406 C 171.71875 256.148438 171.710938 257.105469 171.703125 258.0625 C 171.691406 259.027344 171.683594 259.992188 171.675781 260.957031 C 171.667969 261.910156 171.660156 262.859375 171.648438 263.808594 C 171.640625 264.757812 171.632812 265.707031 171.625 266.65625 C 171.617188 267.59375 171.605469 268.53125 171.597656 269.46875 C 171.589844 270.398438 171.582031 271.332031 171.574219 272.261719 C 171.570312 272.402344 171.570312 272.542969 171.570312 272.683594 C 171.570312 272.683594 171.570312 272.683594 171.570312 272.6875 C 171.570312 272.761719 171.574219 272.835938 171.574219 272.910156 C 171.574219 273.089844 171.578125 273.265625 171.585938 273.445312 C 171.59375 273.589844 171.609375 273.734375 171.636719 273.875 C 171.636719 273.890625 171.640625 273.902344 171.644531 273.917969 C 171.84375 274.535156 172.238281 275.085938 172.769531 275.457031 C 172.875 275.53125 172.980469 275.601562 173.089844 275.667969 C 173.109375 275.679688 173.125 275.6875 173.144531 275.699219 C 173.160156 275.710938 173.179688 275.722656 173.199219 275.730469 C 173.214844 275.742188 173.234375 275.75 173.253906 275.761719 C 173.289062 275.78125 173.328125 275.800781 173.363281 275.820312 C 173.382812 275.832031 173.402344 275.839844 173.421875 275.847656 C 173.457031 275.867188 173.496094 275.886719 173.535156 275.902344 C 173.835938 276.042969 174.152344 276.148438 174.476562 276.21875 Z M 174.476562 276.21875 " fill-opacity="1" fill-rule="nonzero"/></g><path fill="#1d1d1b" d="M 177.039062 276.789062 C 176.566406 276.78125 176.097656 276.773438 175.628906 276.765625 C 175.601562 276.773438 175.574219 276.773438 175.546875 276.773438 C 175.539062 276.773438 175.53125 276.773438 175.519531 276.773438 C 175.378906 276.773438 175.234375 276.769531 175.09375 276.757812 C 175.089844 276.757812 175.089844 276.757812 175.085938 276.757812 C 175.074219 276.757812 175.0625 276.757812 175.050781 276.753906 C 175.03125 276.753906 175.011719 276.75 174.988281 276.746094 C 174.910156 276.738281 174.828125 276.726562 174.746094 276.714844 C 174.738281 276.710938 174.730469 276.710938 174.722656 276.710938 C 174.707031 276.707031 174.695312 276.707031 174.679688 276.703125 C 174.652344 276.699219 174.628906 276.695312 174.601562 276.6875 C 174.582031 276.683594 174.5625 276.683594 174.546875 276.679688 C 174.527344 276.675781 174.511719 276.671875 174.492188 276.667969 C 174.472656 276.664062 174.457031 276.660156 174.4375 276.65625 C 174.140625 276.59375 173.851562 276.503906 173.570312 276.390625 C 173.601562 276.789062 173.648438 277.183594 173.699219 277.574219 C 173.722656 277.941406 173.992188 278.136719 174.339844 278.242188 C 174.398438 278.257812 174.460938 278.273438 174.523438 278.285156 C 174.539062 278.289062 174.554688 278.292969 174.570312 278.292969 C 174.582031 278.296875 174.589844 278.296875 174.601562 278.300781 C 174.621094 278.304688 174.636719 278.304688 174.65625 278.308594 C 174.671875 278.3125 174.6875 278.3125 174.703125 278.316406 C 174.710938 278.316406 174.714844 278.316406 174.722656 278.316406 C 174.738281 278.320312 174.753906 278.320312 174.765625 278.324219 C 175.160156 278.367188 175.578125 278.34375 175.847656 278.339844 C 176.214844 278.300781 176.675781 278.285156 177.074219 278.164062 C 177.089844 278.160156 177.105469 278.15625 177.125 278.148438 C 177.132812 278.144531 177.144531 278.144531 177.15625 278.140625 C 177.195312 278.125 177.234375 278.109375 177.273438 278.09375 C 177.28125 278.089844 177.289062 278.085938 177.296875 278.082031 C 177.324219 278.070312 177.347656 278.058594 177.375 278.046875 C 177.382812 278.042969 177.390625 278.035156 177.398438 278.03125 C 177.417969 278.023438 177.433594 278.011719 177.449219 278.003906 C 177.457031 278 177.464844 277.996094 177.472656 277.988281 C 177.480469 277.984375 177.488281 277.976562 177.496094 277.972656 C 177.632812 277.878906 177.746094 277.761719 177.828125 277.605469 C 177.933594 277.347656 177.992188 277.082031 178.027344 276.804688 C 177.839844 276.804688 177.65625 276.800781 177.46875 276.796875 C 177.324219 276.792969 177.183594 276.792969 177.039062 276.789062 Z M 177.039062 276.789062 " fill-opacity="1" fill-rule="nonzero"/><path fill="#1d1d1b" d="M 189.027344 248.867188 C 189.054688 248.855469 189.082031 248.851562 189.113281 248.851562 C 189.148438 248.851562 189.179688 248.851562 189.214844 248.851562 C 189.417969 248.851562 189.625 248.851562 189.832031 248.859375 C 189.839844 248.859375 189.851562 248.859375 189.859375 248.859375 C 189.914062 248.863281 189.96875 248.863281 190.023438 248.867188 C 190.042969 248.867188 190.0625 248.867188 190.085938 248.867188 C 190.09375 248.871094 190.105469 248.871094 190.113281 248.871094 C 190.164062 248.871094 190.210938 248.875 190.261719 248.878906 C 190.265625 248.878906 190.265625 248.878906 190.265625 248.878906 C 190.484375 248.890625 190.703125 248.914062 190.921875 248.941406 C 190.945312 246.492188 191.636719 243.21875 189.0625 241.863281 C 188.9375 241.808594 188.8125 241.757812 188.6875 241.710938 C 188.472656 242.496094 188.21875 243.277344 187.832031 243.996094 C 189.269531 244.863281 189.125 246.84375 189.027344 248.867188 Z M 189.027344 248.867188 " fill-opacity="1" fill-rule="nonzero"/><path fill="#1d1d1b" d="M 176.179688 249.3125 C 176.179688 249.515625 176.179688 249.722656 176.175781 249.929688 C 176.175781 250.191406 176.171875 250.453125 176.171875 250.71875 C 176.164062 251.335938 176.160156 251.949219 176.15625 252.566406 C 176.144531 253.800781 176.136719 255.035156 176.128906 256.269531 C 176.117188 257.464844 176.109375 258.65625 176.097656 259.851562 C 176.089844 261.03125 176.082031 262.210938 176.070312 263.394531 C 176.0625 264.609375 176.050781 265.828125 176.042969 267.042969 C 176.035156 268.210938 176.023438 269.378906 176.015625 270.542969 C 176.007812 271.699219 175.996094 272.851562 175.988281 274.007812 C 175.980469 274.761719 175.976562 275.519531 175.96875 276.273438 C 175.96875 276.296875 175.964844 276.316406 175.960938 276.335938 C 176.3125 276.34375 176.664062 276.347656 177.015625 276.355469 C 177.160156 276.355469 177.304688 276.359375 177.453125 276.363281 C 177.507812 276.363281 177.566406 276.363281 177.625 276.363281 C 177.765625 276.367188 177.910156 276.371094 178.054688 276.371094 C 178.195312 276.375 178.339844 276.375 178.484375 276.378906 C 178.503906 276.378906 178.523438 276.378906 178.539062 276.378906 C 178.542969 276.3125 178.546875 276.242188 178.554688 276.175781 C 178.554688 276.175781 178.554688 276.175781 178.554688 276.171875 C 178.550781 276.164062 178.550781 276.15625 178.550781 276.148438 C 178.5625 275.003906 178.570312 273.855469 178.582031 272.707031 C 178.589844 271.515625 178.601562 270.324219 178.609375 269.128906 C 178.621094 267.964844 178.632812 266.800781 178.640625 265.636719 C 178.652344 264.40625 178.660156 263.179688 178.671875 261.949219 C 178.683594 260.789062 178.691406 259.625 178.703125 258.464844 C 178.710938 257.292969 178.722656 256.121094 178.730469 254.949219 C 178.742188 253.78125 178.75 252.613281 178.761719 251.445312 C 178.765625 250.722656 178.773438 250.003906 178.78125 249.28125 C 178.550781 249.285156 178.324219 249.289062 178.09375 249.289062 C 177.457031 249.296875 176.816406 249.304688 176.179688 249.3125 Z M 176.179688 249.3125 " fill-opacity="1" fill-rule="nonzero"/><path fill="#1d1d1b" d="M 175.964844 248.828125 C 176 248.828125 176.035156 248.835938 176.066406 248.851562 C 176.175781 248.851562 176.289062 248.851562 176.402344 248.851562 C 176.433594 248.851562 176.464844 248.851562 176.5 248.851562 C 176.53125 248.851562 176.5625 248.859375 176.59375 248.871094 C 176.871094 248.867188 177.144531 248.863281 177.421875 248.863281 C 177.425781 248.703125 177.460938 248.527344 177.441406 248.410156 C 177.464844 247.742188 177.511719 247.074219 177.570312 246.410156 C 177.582031 245.476562 178.027344 244.8125 178.671875 244.359375 C 178.460938 244.054688 178.28125 243.726562 178.117188 243.394531 C 177.898438 242.929688 177.757812 242.433594 177.667969 241.929688 C 177.359375 242.050781 177.058594 242.191406 176.769531 242.351562 C 175.289062 243.460938 175.457031 245.523438 175.292969 247.175781 C 175.25 247.75 175.195312 248.316406 175.207031 248.890625 C 175.421875 248.871094 175.640625 248.863281 175.859375 248.855469 C 175.890625 248.839844 175.925781 248.828125 175.964844 248.828125 Z M 175.964844 248.828125 " fill-opacity="1" fill-rule="nonzero"/><g clip-path="url(#62d02c6d3c)"><path fill="#1d1d1b" d="M 187.238281 244.152344 C 187.257812 244.117188 187.277344 244.085938 187.296875 244.050781 C 187.308594 244.03125 187.320312 244.011719 187.335938 243.992188 C 187.351562 243.960938 187.367188 243.933594 187.386719 243.902344 C 187.394531 243.886719 187.40625 243.871094 187.414062 243.851562 C 187.421875 243.835938 187.433594 243.820312 187.441406 243.804688 C 187.492188 243.714844 187.535156 243.625 187.578125 243.539062 C 187.878906 242.90625 188.070312 242.289062 188.257812 241.632812 C 188.261719 241.617188 188.269531 241.597656 188.273438 241.578125 C 188.300781 241.472656 188.332031 241.363281 188.359375 241.253906 C 188.371094 241.21875 188.378906 241.183594 188.390625 241.144531 C 188.417969 241.035156 188.445312 240.925781 188.46875 240.8125 C 188.46875 240.808594 188.46875 240.804688 188.46875 240.800781 C 188.378906 240.683594 188.21875 240.625 188.085938 240.570312 C 187.589844 240.429688 187.074219 240.367188 186.5625 240.304688 C 185.113281 240.125 183.644531 240.191406 182.191406 240.296875 C 180.898438 240.402344 179.605469 240.546875 178.34375 240.851562 C 178.246094 240.859375 178.113281 240.914062 177.984375 240.953125 C 177.988281 241.019531 177.992188 241.089844 178.003906 241.148438 C 178.007812 241.207031 178.015625 241.269531 178.019531 241.332031 C 178.023438 241.359375 178.027344 241.390625 178.03125 241.417969 C 178.035156 241.464844 178.042969 241.507812 178.046875 241.554688 C 178.050781 241.570312 178.054688 241.589844 178.054688 241.609375 C 178.054688 241.617188 178.058594 241.625 178.058594 241.632812 C 178.0625 241.660156 178.066406 241.691406 178.074219 241.71875 C 178.074219 241.738281 178.078125 241.757812 178.082031 241.777344 C 178.230469 242.625 178.546875 243.429688 179.039062 244.136719 C 179.039062 244.136719 179.042969 244.136719 179.042969 244.136719 C 179.0625 244.164062 179.082031 244.195312 179.101562 244.222656 C 179.121094 244.25 179.140625 244.277344 179.164062 244.304688 C 179.171875 244.316406 179.183594 244.332031 179.191406 244.34375 C 179.195312 244.347656 179.199219 244.355469 179.203125 244.359375 C 179.222656 244.382812 179.246094 244.410156 179.265625 244.433594 C 179.277344 244.453125 179.292969 244.46875 179.304688 244.484375 C 179.320312 244.5 179.332031 244.519531 179.347656 244.535156 C 179.511719 244.683594 179.707031 244.796875 179.898438 244.910156 C 180.304688 244.789062 180.710938 244.660156 181.132812 244.59375 C 182.050781 244.453125 182.984375 244.390625 183.910156 244.402344 C 184.363281 244.410156 184.816406 244.441406 185.269531 244.472656 C 185.832031 244.484375 186.414062 244.632812 186.972656 244.523438 C 186.984375 244.519531 186.992188 244.515625 187.003906 244.515625 C 187.027344 244.460938 187.0625 244.410156 187.101562 244.367188 C 187.136719 244.3125 187.171875 244.253906 187.207031 244.199219 C 187.21875 244.183594 187.226562 244.167969 187.238281 244.152344 Z M 187.238281 244.152344 " fill-opacity="1" fill-rule="nonzero"/></g><path fill="#1d1d1b" d="M 190.566406 276.753906 C 190.554688 276.757812 190.542969 276.757812 190.527344 276.757812 C 190.523438 276.757812 190.519531 276.757812 190.515625 276.757812 C 190.375 276.769531 190.234375 276.773438 190.09375 276.773438 C 190.082031 276.773438 190.074219 276.773438 190.066406 276.773438 C 190.039062 276.773438 190.011719 276.773438 189.984375 276.765625 C 189.953125 276.765625 189.917969 276.769531 189.886719 276.769531 C 189.742188 276.769531 189.597656 276.773438 189.453125 276.777344 C 188.933594 276.785156 188.414062 276.792969 187.894531 276.800781 C 187.894531 276.8125 187.894531 276.824219 187.894531 276.835938 C 187.898438 276.898438 187.90625 276.960938 187.910156 277.023438 C 187.945312 277.296875 188.003906 277.566406 188.109375 277.824219 C 188.191406 277.980469 188.304688 278.097656 188.441406 278.191406 C 188.449219 278.195312 188.457031 278.199219 188.464844 278.207031 C 188.480469 278.214844 188.496094 278.226562 188.511719 278.234375 C 188.550781 278.257812 188.589844 278.277344 188.628906 278.296875 C 188.640625 278.300781 188.65625 278.308594 188.667969 278.3125 C 188.695312 278.324219 188.722656 278.335938 188.75 278.34375 C 188.769531 278.351562 188.789062 278.359375 188.808594 278.363281 C 188.816406 278.367188 188.824219 278.371094 188.835938 278.375 C 188.84375 278.378906 188.855469 278.378906 188.863281 278.382812 C 189.261719 278.503906 189.722656 278.515625 190.089844 278.558594 C 190.359375 278.5625 190.777344 278.585938 191.171875 278.539062 C 191.199219 278.535156 191.226562 278.535156 191.253906 278.53125 C 191.324219 278.519531 191.390625 278.507812 191.457031 278.496094 C 191.46875 278.492188 191.484375 278.488281 191.496094 278.484375 C 191.515625 278.480469 191.53125 278.476562 191.546875 278.472656 C 191.566406 278.46875 191.582031 278.464844 191.597656 278.457031 C 191.945312 278.355469 192.214844 278.15625 192.238281 277.792969 C 192.289062 277.398438 192.335938 277.003906 192.367188 276.609375 C 192.371094 276.570312 192.375 276.53125 192.378906 276.496094 C 192.382812 276.449219 192.382812 276.40625 192.386719 276.359375 C 192.390625 276.320312 192.394531 276.28125 192.394531 276.242188 C 192.394531 276.238281 192.394531 276.238281 192.394531 276.234375 C 191.84375 276.507812 191.234375 276.675781 190.625 276.746094 C 190.605469 276.75 190.585938 276.75 190.566406 276.753906 Z M 190.566406 276.753906 " fill-opacity="1" fill-rule="nonzero"/><g clip-path="url(#707f9eca8f)"><path fill="#1d1d1b" d="M 194.039062 272.261719 C 194.03125 271.332031 194.023438 270.398438 194.015625 269.46875 C 194.007812 268.53125 194 267.59375 193.988281 266.65625 C 193.980469 265.707031 193.972656 264.757812 193.964844 263.808594 C 193.957031 262.859375 193.945312 261.910156 193.9375 260.957031 C 193.929688 259.992188 193.921875 259.027344 193.914062 258.0625 C 193.902344 257.105469 193.894531 256.148438 193.886719 255.191406 C 193.878906 254.285156 193.867188 253.382812 193.863281 252.480469 C 193.855469 252.445312 193.851562 252.414062 193.859375 252.382812 C 193.859375 252.355469 193.859375 252.332031 193.859375 252.308594 C 193.859375 252.28125 193.863281 252.257812 193.871094 252.234375 C 193.871094 252.171875 193.871094 252.109375 193.867188 252.046875 C 193.851562 251.886719 193.828125 251.730469 193.800781 251.574219 C 193.769531 251.4375 193.734375 251.300781 193.691406 251.171875 C 193.65625 251.074219 193.617188 250.976562 193.574219 250.882812 L 193.5625 250.859375 C 193.5625 250.855469 193.558594 250.855469 193.558594 250.851562 C 193.511719 250.757812 193.460938 250.667969 193.402344 250.578125 C 193.359375 250.515625 193.3125 250.457031 193.265625 250.398438 C 193.210938 250.335938 193.152344 250.28125 193.09375 250.226562 C 193.003906 250.148438 192.910156 250.078125 192.8125 250.011719 C 192.703125 249.941406 192.589844 249.875 192.472656 249.816406 C 192.320312 249.742188 192.164062 249.679688 192 249.625 C 191.75 249.542969 191.496094 249.484375 191.238281 249.429688 C 191.230469 249.429688 191.222656 249.429688 191.210938 249.425781 C 191.1875 249.433594 191.164062 249.4375 191.136719 249.4375 C 191.085938 249.4375 191.035156 249.421875 190.996094 249.390625 C 190.910156 249.375 190.824219 249.363281 190.734375 249.355469 C 190.578125 249.335938 190.417969 249.324219 190.261719 249.3125 C 190.257812 249.640625 190.253906 249.96875 190.25 250.296875 C 190.230469 251.589844 190.214844 252.882812 190.195312 254.179688 C 190.175781 255.457031 190.160156 256.738281 190.144531 258.015625 C 190.125 259.324219 190.109375 260.632812 190.089844 261.9375 C 190.070312 263.269531 190.050781 264.601562 190.035156 265.933594 C 190.015625 267.199219 190 268.464844 189.984375 269.730469 C 189.964844 271.046875 189.945312 272.363281 189.929688 273.679688 C 189.917969 274.5625 189.90625 275.449219 189.894531 276.332031 C 190.078125 276.328125 190.265625 276.328125 190.449219 276.324219 C 191.304688 276.257812 192.144531 275.960938 192.84375 275.457031 C 193.375 275.085938 193.769531 274.535156 193.96875 273.917969 C 193.972656 273.902344 193.976562 273.890625 193.980469 273.875 C 194.003906 273.734375 194.019531 273.589844 194.027344 273.445312 C 194.039062 273.265625 194.039062 273.089844 194.039062 272.910156 C 194.042969 272.832031 194.042969 272.75 194.042969 272.667969 C 194.042969 272.535156 194.042969 272.398438 194.039062 272.261719 Z M 194.039062 272.261719 " fill-opacity="1" fill-rule="nonzero"/></g><g clip-path="url(#3d6cbe906d)"><path fill="#1d1d1b" d="M 190.652344 279.007812 C 190.074219 278.988281 189.445312 278.988281 188.875 278.832031 C 188.910156 279.699219 189.042969 280.410156 189.394531 280.585938 C 189.78125 280.753906 190.230469 280.550781 190.613281 280.445312 C 191.023438 280.324219 191.222656 280.027344 191.191406 279.601562 C 191.195312 279.398438 191.195312 279.183594 191.1875 278.96875 C 191.003906 278.988281 190.824219 279 190.652344 279.007812 Z M 190.652344 279.007812 " fill-opacity="1" fill-rule="nonzero"/></g><path fill="#1d1d1b" d="M 189.457031 276.339844 C 189.472656 275.320312 189.484375 274.304688 189.5 273.285156 C 189.515625 271.964844 189.535156 270.648438 189.554688 269.328125 C 189.570312 268.070312 189.585938 266.8125 189.605469 265.554688 C 189.621094 264.292969 189.640625 263.027344 189.65625 261.761719 C 189.675781 260.390625 189.695312 259.019531 189.710938 257.652344 C 189.730469 256.367188 189.746094 255.078125 189.765625 253.792969 C 189.78125 252.527344 189.800781 251.257812 189.816406 249.992188 C 189.820312 249.757812 189.824219 249.527344 189.828125 249.292969 C 189.757812 249.292969 189.691406 249.289062 189.621094 249.289062 C 189.59375 249.304688 189.558594 249.3125 189.523438 249.3125 C 188.855469 249.304688 188.1875 249.296875 187.519531 249.289062 C 187.488281 249.289062 187.453125 249.289062 187.421875 249.289062 C 187.414062 249.863281 187.410156 250.441406 187.402344 251.015625 C 187.386719 252.289062 187.375 253.5625 187.359375 254.835938 C 187.34375 256.195312 187.328125 257.550781 187.316406 258.910156 C 187.300781 260.183594 187.285156 261.457031 187.273438 262.730469 C 187.257812 264.105469 187.242188 265.476562 187.226562 266.851562 C 187.210938 268.132812 187.199219 269.417969 187.183594 270.699219 C 187.167969 272.046875 187.152344 273.394531 187.140625 274.746094 C 187.132812 275.261719 187.128906 275.777344 187.121094 276.289062 C 187.121094 276.320312 187.121094 276.347656 187.121094 276.378906 C 187.410156 276.375 187.699219 276.371094 187.992188 276.363281 C 188.480469 276.355469 188.96875 276.347656 189.457031 276.339844 Z M 189.457031 276.339844 " fill-opacity="1" fill-rule="nonzero"/><path fill="#1d1d1b" d="M 182.816406 249.234375 C 182.144531 249.242188 181.472656 249.25 180.796875 249.257812 C 180.269531 249.265625 179.742188 249.269531 179.214844 249.277344 C 179.207031 250.144531 179.199219 251.011719 179.191406 251.878906 C 179.183594 253.039062 179.171875 254.203125 179.164062 255.367188 C 179.152344 256.570312 179.140625 257.773438 179.132812 258.976562 C 179.121094 260.171875 179.113281 261.363281 179.101562 262.558594 C 179.09375 263.703125 179.082031 264.84375 179.074219 265.988281 C 179.0625 267.222656 179.050781 268.460938 179.042969 269.695312 C 179.03125 270.859375 179.023438 272.019531 179.011719 273.183594 C 179.003906 274.105469 178.996094 275.03125 178.988281 275.957031 C 178.996094 275.976562 179 276 178.996094 276.023438 C 178.992188 276.105469 178.988281 276.191406 178.980469 276.273438 C 178.980469 276.3125 178.976562 276.347656 178.976562 276.386719 C 179.476562 276.394531 179.976562 276.402344 180.476562 276.410156 C 181.253906 276.425781 182.03125 276.4375 182.808594 276.449219 C 183.582031 276.4375 184.359375 276.425781 185.136719 276.410156 C 185.652344 276.402344 186.171875 276.394531 186.6875 276.386719 C 186.6875 276.21875 186.691406 276.050781 186.691406 275.886719 C 186.699219 275.226562 186.707031 274.566406 186.714844 273.90625 C 186.726562 272.59375 186.742188 271.28125 186.757812 269.96875 C 186.773438 268.664062 186.785156 267.359375 186.800781 266.058594 C 186.816406 264.683594 186.832031 263.3125 186.847656 261.941406 C 186.859375 260.671875 186.875 259.398438 186.886719 258.128906 C 186.902344 256.800781 186.917969 255.472656 186.933594 254.144531 C 186.945312 252.847656 186.960938 251.550781 186.976562 250.25 C 186.980469 249.929688 186.980469 249.605469 186.984375 249.285156 C 186.261719 249.273438 185.539062 249.265625 184.816406 249.257812 C 184.148438 249.25 183.484375 249.242188 182.816406 249.234375 Z M 182.816406 249.234375 " fill-opacity="1" fill-rule="nonzero"/><g fill="#000000" fill-opacity="1"><g transform="translate(96.236813, 350.818074)"><g><path d="M 1.875 -34.015625 L 1.875 -41.078125 L 35.390625 -41.078125 L 35.390625 -34.015625 L 22.875 -34.015625 L 22.875 0 L 14.4375 0 L 14.4375 -34.015625 Z M 1.875 -34.015625 "/></g></g></g><g fill="#000000" fill-opacity="1"><g transform="translate(132.934511, 350.818074)"><g><path d="M 3.390625 0 L 3.390625 -30.4375 L 11.359375 -30.4375 L 11.359375 -25.171875 L 11.625 -25.171875 C 12.175781 -27.023438 13.09375 -28.425781 14.375 -29.375 C 15.664062 -30.320312 17.195312 -30.796875 18.96875 -30.796875 C 19.40625 -30.796875 19.863281 -30.773438 20.34375 -30.734375 C 20.820312 -30.703125 21.234375 -30.644531 21.578125 -30.5625 L 21.578125 -23.296875 C 21.234375 -23.398438 20.71875 -23.484375 20.03125 -23.546875 C 19.34375 -23.617188 18.675781 -23.65625 18.03125 -23.65625 C 16.8125 -23.65625 15.710938 -23.382812 14.734375 -22.84375 C 13.753906 -22.3125 12.988281 -21.554688 12.4375 -20.578125 C 11.882812 -19.609375 11.609375 -18.460938 11.609375 -17.140625 L 11.609375 0 Z M 3.390625 0 "/></g></g></g><g fill="#000000" fill-opacity="1"><g transform="translate(158.607681, 350.818074)"><g><path d="M 3.390625 0 L 3.390625 -30.4375 L 11.609375 -30.4375 L 11.609375 0 Z M 7.5 -34.375 C 6.226562 -34.375 5.144531 -34.785156 4.25 -35.609375 C 3.363281 -36.441406 2.921875 -37.453125 2.921875 -38.640625 C 2.921875 -39.835938 3.363281 -40.847656 4.25 -41.671875 C 5.144531 -42.503906 6.226562 -42.921875 7.5 -42.921875 C 8.769531 -42.921875 9.84375 -42.503906 10.71875 -41.671875 C 11.601562 -40.847656 12.046875 -39.835938 12.046875 -38.640625 C 12.046875 -37.453125 11.601562 -36.441406 10.71875 -35.609375 C 9.84375 -34.785156 8.769531 -34.375 7.5 -34.375 Z M 7.5 -34.375 "/></g></g></g><g fill="#000000" fill-opacity="1"><g transform="translate(176.425307, 350.818074)"><g><path d="M 3.390625 11.515625 L 3.390625 -30.4375 L 11.46875 -30.4375 L 11.46875 -25.53125 L 11.828125 -25.53125 C 12.242188 -26.394531 12.820312 -27.234375 13.5625 -28.046875 C 14.300781 -28.867188 15.242188 -29.546875 16.390625 -30.078125 C 17.535156 -30.609375 18.925781 -30.875 20.5625 -30.875 C 22.894531 -30.875 25.003906 -30.269531 26.890625 -29.0625 C 28.773438 -27.863281 30.273438 -26.097656 31.390625 -23.765625 C 32.515625 -21.441406 33.078125 -18.582031 33.078125 -15.1875 C 33.078125 -11.84375 32.53125 -9.003906 31.4375 -6.671875 C 30.34375 -4.335938 28.847656 -2.550781 26.953125 -1.3125 C 25.066406 -0.0820312 22.921875 0.53125 20.515625 0.53125 C 18.929688 0.53125 17.566406 0.269531 16.421875 -0.25 C 15.285156 -0.78125 14.34375 -1.445312 13.59375 -2.25 C 12.851562 -3.0625 12.265625 -3.910156 11.828125 -4.796875 L 11.609375 -4.796875 L 11.609375 11.515625 Z M 18.0625 -6.09375 C 19.488281 -6.09375 20.6875 -6.472656 21.65625 -7.234375 C 22.632812 -7.992188 23.375 -9.054688 23.875 -10.421875 C 24.382812 -11.796875 24.640625 -13.394531 24.640625 -15.21875 C 24.640625 -17.019531 24.382812 -18.597656 23.875 -19.953125 C 23.375 -21.316406 22.632812 -22.375 21.65625 -23.125 C 20.6875 -23.875 19.488281 -24.25 18.0625 -24.25 C 16.65625 -24.25 15.453125 -23.878906 14.453125 -23.140625 C 13.453125 -22.398438 12.691406 -21.351562 12.171875 -20 C 11.648438 -18.644531 11.390625 -17.050781 11.390625 -15.21875 C 11.390625 -13.375 11.65625 -11.769531 12.1875 -10.40625 C 12.71875 -9.050781 13.484375 -7.992188 14.484375 -7.234375 C 15.484375 -6.472656 16.675781 -6.09375 18.0625 -6.09375 Z M 18.0625 -6.09375 "/></g></g></g><g fill="#00adb8" fill-opacity="1"><g transform="translate(214.420399, 350.818074)"><g><path d="M 3.5625 0 L 3.5625 -41.078125 L 19.90625 -41.078125 C 22.894531 -41.078125 25.398438 -40.625 27.421875 -39.71875 C 29.441406 -38.820312 30.960938 -37.578125 31.984375 -35.984375 C 33.003906 -34.398438 33.515625 -32.578125 33.515625 -30.515625 C 33.515625 -28.910156 33.195312 -27.503906 32.5625 -26.296875 C 31.925781 -25.085938 31.050781 -24.09375 29.9375 -23.3125 C 28.832031 -22.539062 27.5625 -21.992188 26.125 -21.671875 L 26.125 -21.3125 C 27.707031 -21.238281 29.175781 -20.789062 30.53125 -19.96875 C 31.894531 -19.15625 32.992188 -18.019531 33.828125 -16.5625 C 34.671875 -15.113281 35.09375 -13.390625 35.09375 -11.390625 C 35.09375 -9.203125 34.554688 -7.25 33.484375 -5.53125 C 32.421875 -3.8125 30.835938 -2.457031 28.734375 -1.46875 C 26.628906 -0.488281 24.023438 0 20.921875 0 Z M 11.96875 -6.859375 L 19.375 -6.859375 C 21.78125 -6.859375 23.554688 -7.332031 24.703125 -8.28125 C 25.859375 -9.226562 26.4375 -10.5 26.4375 -12.09375 C 26.4375 -13.257812 26.160156 -14.28125 25.609375 -15.15625 C 25.054688 -16.039062 24.265625 -16.726562 23.234375 -17.21875 C 22.203125 -17.71875 20.984375 -17.96875 19.578125 -17.96875 L 11.96875 -17.96875 Z M 11.96875 -23.875 L 18.796875 -23.875 C 20.015625 -23.875 21.09375 -24.082031 22.03125 -24.5 C 22.96875 -24.925781 23.703125 -25.535156 24.234375 -26.328125 C 24.765625 -27.128906 25.03125 -28.070312 25.03125 -29.15625 C 25.03125 -30.6875 24.492188 -31.921875 23.421875 -32.859375 C 22.359375 -33.796875 20.851562 -34.265625 18.90625 -34.265625 L 11.96875 -34.265625 Z M 11.96875 -23.875 "/></g></g></g><g fill="#00adb8" fill-opacity="1"><g transform="translate(254.371195, 350.818074)"><g><path d="M 3.390625 0 L 3.390625 -30.4375 L 11.609375 -30.4375 L 11.609375 0 Z M 7.5 -34.375 C 6.226562 -34.375 5.144531 -34.785156 4.25 -35.609375 C 3.363281 -36.441406 2.921875 -37.453125 2.921875 -38.640625 C 2.921875 -39.835938 3.363281 -40.847656 4.25 -41.671875 C 5.144531 -42.503906 6.226562 -42.921875 7.5 -42.921875 C 8.769531 -42.921875 9.84375 -42.503906 10.71875 -41.671875 C 11.601562 -40.847656 12.046875 -39.835938 12.046875 -38.640625 C 12.046875 -37.453125 11.601562 -36.441406 10.71875 -35.609375 C 9.84375 -34.785156 8.769531 -34.375 7.5 -34.375 Z M 7.5 -34.375 "/></g></g></g></svg>