<svg xmlns="http://www.w3.org/2000/svg" xmlns:xlink="http://www.w3.org/1999/xlink" width="500" zoomAndPan="magnify" viewBox="0 0 375 374.999991" height="500" preserveAspectRatio="xMidYMid meet" version="1.0"><defs><clipPath id="c5e85adf85"><path d="M 0.371094 0.550781 L 23.15625 0.550781 L 23.15625 23.339844 L 0.371094 23.339844 Z M 0.371094 0.550781 " clip-rule="nonzero"/></clipPath><clipPath id="6eea695da5"><path d="M 11.765625 0.550781 C 5.472656 0.550781 0.371094 5.652344 0.371094 11.945312 C 0.371094 18.238281 5.472656 23.339844 11.765625 23.339844 C 18.058594 23.339844 23.15625 18.238281 23.15625 11.945312 C 23.15625 5.652344 18.058594 0.550781 11.765625 0.550781 Z M 11.765625 0.550781 " clip-rule="nonzero"/></clipPath><clipPath id="f340b83dcd"><path d="M 0.371094 0.550781 L 23.15625 0.550781 L 23.15625 23.339844 L 0.371094 23.339844 Z M 0.371094 0.550781 " clip-rule="nonzero"/></clipPath><clipPath id="f1a7962d9f"><path d="M 11.765625 0.550781 C 5.472656 0.550781 0.371094 5.652344 0.371094 11.945312 C 0.371094 18.238281 5.472656 23.339844 11.765625 23.339844 C 18.058594 23.339844 23.15625 18.238281 23.15625 11.945312 C 23.15625 5.652344 18.058594 0.550781 11.765625 0.550781 Z M 11.765625 0.550781 " clip-rule="nonzero"/></clipPath><clipPath id="b510a777bf"><rect x="0" width="24" y="0" height="24"/></clipPath><clipPath id="e05a157f4f"><path d="M 3.964844 4.144531 L 19.566406 4.144531 L 19.566406 19.746094 L 3.964844 19.746094 Z M 3.964844 4.144531 " clip-rule="nonzero"/></clipPath><clipPath id="412d97f655"><path d="M 11.765625 4.144531 C 7.457031 4.144531 3.964844 7.636719 3.964844 11.945312 C 3.964844 16.253906 7.457031 19.746094 11.765625 19.746094 C 16.074219 19.746094 19.566406 16.253906 19.566406 11.945312 C 19.566406 7.636719 16.074219 4.144531 11.765625 4.144531 Z M 11.765625 4.144531 " clip-rule="nonzero"/></clipPath><clipPath id="b14296f193"><path d="M 0.964844 0.144531 L 16.566406 0.144531 L 16.566406 15.746094 L 0.964844 15.746094 Z M 0.964844 0.144531 " clip-rule="nonzero"/></clipPath><clipPath id="6155e8ffff"><path d="M 8.765625 0.144531 C 4.457031 0.144531 0.964844 3.636719 0.964844 7.945312 C 0.964844 12.253906 4.457031 15.746094 8.765625 15.746094 C 13.074219 15.746094 16.566406 12.253906 16.566406 7.945312 C 16.566406 3.636719 13.074219 0.144531 8.765625 0.144531 Z M 8.765625 0.144531 " clip-rule="nonzero"/></clipPath><clipPath id="fe92b0552d"><rect x="0" width="17" y="0" height="16"/></clipPath><clipPath id="b69bc63717"><rect x="0" width="24" y="0" height="24"/></clipPath><clipPath id="2311d8f594"><path d="M 0.84375 0.550781 L 23.628906 0.550781 L 23.628906 23.339844 L 0.84375 23.339844 Z M 0.84375 0.550781 " clip-rule="nonzero"/></clipPath><clipPath id="1d3d2601ae"><path d="M 12.234375 0.550781 C 5.941406 0.550781 0.84375 5.652344 0.84375 11.945312 C 0.84375 18.238281 5.941406 23.339844 12.234375 23.339844 C 18.527344 23.339844 23.628906 18.238281 23.628906 11.945312 C 23.628906 5.652344 18.527344 0.550781 12.234375 0.550781 Z M 12.234375 0.550781 " clip-rule="nonzero"/></clipPath><clipPath id="e4792b6920"><path d="M 0.84375 0.550781 L 23.628906 0.550781 L 23.628906 23.339844 L 0.84375 23.339844 Z M 0.84375 0.550781 " clip-rule="nonzero"/></clipPath><clipPath id="8d378e210a"><path d="M 12.234375 0.550781 C 5.941406 0.550781 0.84375 5.652344 0.84375 11.945312 C 0.84375 18.238281 5.941406 23.339844 12.234375 23.339844 C 18.527344 23.339844 23.628906 18.238281 23.628906 11.945312 C 23.628906 5.652344 18.527344 0.550781 12.234375 0.550781 Z M 12.234375 0.550781 " clip-rule="nonzero"/></clipPath><clipPath id="7b959648f2"><rect x="0" width="24" y="0" height="24"/></clipPath><clipPath id="b94e836b4d"><path d="M 4.433594 4.144531 L 20.035156 4.144531 L 20.035156 19.746094 L 4.433594 19.746094 Z M 4.433594 4.144531 " clip-rule="nonzero"/></clipPath><clipPath id="e42e701e11"><path d="M 12.234375 4.144531 C 7.925781 4.144531 4.433594 7.636719 4.433594 11.945312 C 4.433594 16.253906 7.925781 19.746094 12.234375 19.746094 C 16.542969 19.746094 20.035156 16.253906 20.035156 11.945312 C 20.035156 7.636719 16.542969 4.144531 12.234375 4.144531 Z M 12.234375 4.144531 " clip-rule="nonzero"/></clipPath><clipPath id="d66b4fb03c"><path d="M 0.433594 0.144531 L 16.035156 0.144531 L 16.035156 15.746094 L 0.433594 15.746094 Z M 0.433594 0.144531 " clip-rule="nonzero"/></clipPath><clipPath id="ff2a2f8e34"><path d="M 8.234375 0.144531 C 3.925781 0.144531 0.433594 3.636719 0.433594 7.945312 C 0.433594 12.253906 3.925781 15.746094 8.234375 15.746094 C 12.542969 15.746094 16.035156 12.253906 16.035156 7.945312 C 16.035156 3.636719 12.542969 0.144531 8.234375 0.144531 Z M 8.234375 0.144531 " clip-rule="nonzero"/></clipPath><clipPath id="211805762a"><rect x="0" width="17" y="0" height="16"/></clipPath><clipPath id="5bab0955d9"><rect x="0" width="24" y="0" height="24"/></clipPath><clipPath id="827304c7cb"><path d="M 46 101.359375 L 86 101.359375 L 86 141 L 46 141 Z M 46 101.359375 " clip-rule="nonzero"/></clipPath><clipPath id="2425654db3"><path d="M 289 101.359375 L 329 101.359375 L 329 141 L 289 141 Z M 289 101.359375 " clip-rule="nonzero"/></clipPath><clipPath id="d3d60b4ed7"><path d="M 126 181 L 249 181 L 249 296.359375 L 126 296.359375 Z M 126 181 " clip-rule="nonzero"/></clipPath><clipPath id="af709a5b98"><path d="M 153.644531 26.496094 L 221.144531 26.496094 L 221.144531 122.496094 L 153.644531 122.496094 Z M 153.644531 26.496094 " clip-rule="nonzero"/></clipPath><clipPath id="54d7f7282a"><path d="M 221.148438 60.53125 C 221.148438 84.15625 187.394531 122.417969 187.394531 122.417969 C 187.394531 122.417969 186.222656 121.105469 184.316406 118.808594 C 180.992188 114.800781 175.410156 107.78125 169.914062 99.5625 C 172.46875 98.238281 175.273438 96.230469 177.257812 94.3125 C 182.417969 89.332031 185.765625 82.804688 188.09375 75.949219 C 188.328125 76.117188 188.523438 76.28125 188.660156 76.429688 L 191.53125 78.949219 C 192.078125 79.425781 192.546875 79.332031 192.582031 78.726562 C 192.617188 78.117188 192.402344 77.097656 192.078125 76.433594 L 190.75 73.640625 C 190.433594 72.976562 190.511719 71.949219 190.917969 71.34375 L 195.710938 64.230469 C 196.121094 63.632812 196.890625 63.539062 197.425781 64.03125 L 203.796875 69.867188 L 206.238281 72.105469 C 206.777344 72.601562 207.253906 72.414062 207.308594 71.683594 L 207.320312 71.582031 C 207.367188 70.847656 207.105469 69.753906 206.714844 69.125 L 205.417969 67.027344 L 200.574219 59.175781 C 200.1875 58.546875 200.183594 57.542969 200.554688 56.914062 L 202.898438 52.96875 C 203.277344 52.347656 203.523438 51.238281 203.46875 50.511719 L 202.972656 47.605469 C 202.90625 46.878906 202.308594 46.535156 201.648438 46.832031 L 198.921875 47.90625 C 198.261719 48.214844 197.464844 48.980469 197.132812 49.632812 L 194.90625 53.925781 C 194.582031 54.582031 193.726562 55.125 193.007812 55.148438 L 180.558594 55.96875 C 179.832031 56.003906 178.90625 56.332031 178.492188 56.714844 C 178.085938 57.109375 178.3125 57.574219 179.023438 57.742188 L 189.992188 60.574219 C 190.699219 60.753906 191.085938 61.460938 190.851562 62.15625 L 188.292969 69.878906 C 188.0625 70.574219 187.300781 71.257812 186.585938 71.398438 L 182.351562 72.269531 C 181.636719 72.417969 180.957031 72.785156 180.816406 73.097656 C 180.683594 73.40625 181.160156 73.777344 181.867188 73.917969 L 184.722656 74.515625 C 185.046875 74.558594 185.429688 74.671875 185.832031 74.8125 C 178.539062 84.828125 168.109375 85.984375 161.25 85.070312 C 156.828125 76.574219 153.644531 67.894531 153.644531 60.53125 C 153.644531 42.8125 167.125 28.257812 184.328125 26.707031 C 185.335938 26.617188 186.359375 26.566406 187.394531 26.566406 C 194.851562 26.566406 201.734375 29 207.3125 33.109375 C 207.3125 33.109375 207.3125 33.109375 207.3125 33.113281 C 215.699219 39.289062 221.148438 49.265625 221.148438 60.53125 Z M 221.148438 60.53125 " clip-rule="nonzero"/></clipPath><linearGradient x1="14.638299" gradientTransform="matrix(0.260618, 0, 0, 0.262265, 153.643647, 26.568149)" y1="-11.010055" x2="283.783382" gradientUnits="userSpaceOnUse" y2="346.829407" id="f6414a0ce8"><stop stop-opacity="1" stop-color="rgb(5.099487%, 43.528748%, 89.7995%)" offset="0"/><stop stop-opacity="1" stop-color="rgb(5.099487%, 43.528748%, 89.7995%)" offset="0.125"/><stop stop-opacity="1" stop-color="rgb(5.099487%, 43.528748%, 89.7995%)" offset="0.15625"/><stop stop-opacity="1" stop-color="rgb(5.099487%, 43.623352%, 89.81781%)" offset="0.171875"/><stop stop-opacity="1" stop-color="rgb(5.099487%, 43.882751%, 89.871216%)" offset="0.179687"/><stop stop-opacity="1" stop-color="rgb(5.099487%, 44.213867%, 89.938354%)" offset="0.1875"/><stop stop-opacity="1" stop-color="rgb(5.099487%, 44.543457%, 90.005493%)" offset="0.195312"/><stop stop-opacity="1" stop-color="rgb(5.099487%, 44.874573%, 90.072632%)" offset="0.203125"/><stop stop-opacity="1" stop-color="rgb(5.099487%, 45.205688%, 90.139771%)" offset="0.210937"/><stop stop-opacity="1" stop-color="rgb(5.099487%, 45.536804%, 90.206909%)" offset="0.21875"/><stop stop-opacity="1" stop-color="rgb(5.099487%, 45.86792%, 90.274048%)" offset="0.226562"/><stop stop-opacity="1" stop-color="rgb(5.099487%, 46.19751%, 90.341187%)" offset="0.234375"/><stop stop-opacity="1" stop-color="rgb(5.099487%, 46.528625%, 90.408325%)" offset="0.242187"/><stop stop-opacity="1" stop-color="rgb(5.099487%, 46.859741%, 90.475464%)" offset="0.25"/><stop stop-opacity="1" stop-color="rgb(5.099487%, 47.190857%, 90.542603%)" offset="0.257812"/><stop stop-opacity="1" stop-color="rgb(5.099487%, 47.520447%, 90.609741%)" offset="0.265625"/><stop stop-opacity="1" stop-color="rgb(5.099487%, 47.851562%, 90.67688%)" offset="0.273437"/><stop stop-opacity="1" stop-color="rgb(5.099487%, 48.182678%, 90.744019%)" offset="0.28125"/><stop stop-opacity="1" stop-color="rgb(5.099487%, 48.513794%, 90.811157%)" offset="0.289062"/><stop stop-opacity="1" stop-color="rgb(5.099487%, 48.84491%, 90.878296%)" offset="0.296875"/><stop stop-opacity="1" stop-color="rgb(5.099487%, 49.1745%, 90.945435%)" offset="0.304687"/><stop stop-opacity="1" stop-color="rgb(5.099487%, 49.505615%, 91.012573%)" offset="0.3125"/><stop stop-opacity="1" stop-color="rgb(5.099487%, 49.836731%, 91.079712%)" offset="0.320312"/><stop stop-opacity="1" stop-color="rgb(5.099487%, 50.167847%, 91.145325%)" offset="0.328125"/><stop stop-opacity="1" stop-color="rgb(5.099487%, 50.497437%, 91.212463%)" offset="0.335938"/><stop stop-opacity="1" stop-color="rgb(5.099487%, 50.828552%, 91.279602%)" offset="0.34375"/><stop stop-opacity="1" stop-color="rgb(5.099487%, 51.159668%, 91.346741%)" offset="0.347694"/><stop stop-opacity="1" stop-color="rgb(5.099487%, 51.325989%, 91.38031%)" offset="0.351562"/><stop stop-opacity="1" stop-color="rgb(5.099487%, 51.490784%, 91.413879%)" offset="0.359375"/><stop stop-opacity="1" stop-color="rgb(5.099487%, 51.821899%, 91.481018%)" offset="0.367187"/><stop stop-opacity="1" stop-color="rgb(5.099487%, 52.151489%, 91.548157%)" offset="0.375"/><stop stop-opacity="1" stop-color="rgb(5.099487%, 52.482605%, 91.615295%)" offset="0.382812"/><stop stop-opacity="1" stop-color="rgb(5.099487%, 52.813721%, 91.682434%)" offset="0.390625"/><stop stop-opacity="1" stop-color="rgb(5.099487%, 53.144836%, 91.749573%)" offset="0.398437"/><stop stop-opacity="1" stop-color="rgb(5.099487%, 53.474426%, 91.816711%)" offset="0.40625"/><stop stop-opacity="1" stop-color="rgb(5.099487%, 53.805542%, 91.88385%)" offset="0.414062"/><stop stop-opacity="1" stop-color="rgb(5.099487%, 54.136658%, 91.950989%)" offset="0.421875"/><stop stop-opacity="1" stop-color="rgb(5.099487%, 54.467773%, 92.018127%)" offset="0.429687"/><stop stop-opacity="1" stop-color="rgb(5.099487%, 54.797363%, 92.085266%)" offset="0.4375"/><stop stop-opacity="1" stop-color="rgb(5.099487%, 55.128479%, 92.152405%)" offset="0.445312"/><stop stop-opacity="1" stop-color="rgb(5.099487%, 55.459595%, 92.219543%)" offset="0.453125"/><stop stop-opacity="1" stop-color="rgb(5.099487%, 55.79071%, 92.286682%)" offset="0.460937"/><stop stop-opacity="1" stop-color="rgb(5.099487%, 56.121826%, 92.353821%)" offset="0.46875"/><stop stop-opacity="1" stop-color="rgb(5.099487%, 56.451416%, 92.420959%)" offset="0.476562"/><stop stop-opacity="1" stop-color="rgb(5.099487%, 56.782532%, 92.488098%)" offset="0.484375"/><stop stop-opacity="1" stop-color="rgb(5.099487%, 57.113647%, 92.555237%)" offset="0.492187"/><stop stop-opacity="1" stop-color="rgb(5.099487%, 57.444763%, 92.622375%)" offset="0.5"/><stop stop-opacity="1" stop-color="rgb(5.099487%, 57.774353%, 92.689514%)" offset="0.507812"/><stop stop-opacity="1" stop-color="rgb(5.099487%, 58.105469%, 92.756653%)" offset="0.515625"/><stop stop-opacity="1" stop-color="rgb(5.099487%, 58.436584%, 92.823792%)" offset="0.523437"/><stop stop-opacity="1" stop-color="rgb(5.099487%, 58.7677%, 92.89093%)" offset="0.53125"/><stop stop-opacity="1" stop-color="rgb(5.099487%, 59.098816%, 92.958069%)" offset="0.539062"/><stop stop-opacity="1" stop-color="rgb(5.099487%, 59.428406%, 93.025208%)" offset="0.546875"/><stop stop-opacity="1" stop-color="rgb(5.099487%, 59.759521%, 93.092346%)" offset="0.554688"/><stop stop-opacity="1" stop-color="rgb(5.099487%, 60.090637%, 93.159485%)" offset="0.5625"/><stop stop-opacity="1" stop-color="rgb(5.099487%, 60.421753%, 93.226624%)" offset="0.570312"/><stop stop-opacity="1" stop-color="rgb(5.099487%, 60.751343%, 93.293762%)" offset="0.578125"/><stop stop-opacity="1" stop-color="rgb(5.099487%, 61.082458%, 93.360901%)" offset="0.585938"/><stop stop-opacity="1" stop-color="rgb(5.099487%, 61.413574%, 93.42804%)" offset="0.59375"/><stop stop-opacity="1" stop-color="rgb(5.099487%, 61.74469%, 93.495178%)" offset="0.601562"/><stop stop-opacity="1" stop-color="rgb(5.099487%, 62.075806%, 93.562317%)" offset="0.609375"/><stop stop-opacity="1" stop-color="rgb(5.099487%, 62.405396%, 93.629456%)" offset="0.617187"/><stop stop-opacity="1" stop-color="rgb(5.099487%, 62.736511%, 93.696594%)" offset="0.625"/><stop stop-opacity="1" stop-color="rgb(5.099487%, 63.067627%, 93.763733%)" offset="0.632812"/><stop stop-opacity="1" stop-color="rgb(5.099487%, 63.398743%, 93.830872%)" offset="0.640625"/><stop stop-opacity="1" stop-color="rgb(5.099487%, 63.728333%, 93.89801%)" offset="0.648437"/><stop stop-opacity="1" stop-color="rgb(5.099487%, 64.059448%, 93.965149%)" offset="0.652306"/><stop stop-opacity="1" stop-color="rgb(5.099487%, 64.225769%, 93.998718%)" offset="0.65625"/><stop stop-opacity="1" stop-color="rgb(5.099487%, 64.390564%, 94.032288%)" offset="0.664062"/><stop stop-opacity="1" stop-color="rgb(5.099487%, 64.72168%, 94.099426%)" offset="0.671875"/><stop stop-opacity="1" stop-color="rgb(5.099487%, 65.052795%, 94.166565%)" offset="0.679687"/><stop stop-opacity="1" stop-color="rgb(5.099487%, 65.382385%, 94.233704%)" offset="0.6875"/><stop stop-opacity="1" stop-color="rgb(5.099487%, 65.713501%, 94.300842%)" offset="0.695312"/><stop stop-opacity="1" stop-color="rgb(5.099487%, 66.044617%, 94.367981%)" offset="0.703125"/><stop stop-opacity="1" stop-color="rgb(5.099487%, 66.375732%, 94.43512%)" offset="0.710937"/><stop stop-opacity="1" stop-color="rgb(5.099487%, 66.705322%, 94.500732%)" offset="0.71875"/><stop stop-opacity="1" stop-color="rgb(5.099487%, 67.036438%, 94.567871%)" offset="0.726562"/><stop stop-opacity="1" stop-color="rgb(5.099487%, 67.367554%, 94.63501%)" offset="0.734375"/><stop stop-opacity="1" stop-color="rgb(5.099487%, 67.698669%, 94.702148%)" offset="0.742187"/><stop stop-opacity="1" stop-color="rgb(5.099487%, 68.029785%, 94.769287%)" offset="0.75"/><stop stop-opacity="1" stop-color="rgb(5.099487%, 68.359375%, 94.836426%)" offset="0.757812"/><stop stop-opacity="1" stop-color="rgb(5.099487%, 68.690491%, 94.903564%)" offset="0.765625"/><stop stop-opacity="1" stop-color="rgb(5.099487%, 69.021606%, 94.970703%)" offset="0.773437"/><stop stop-opacity="1" stop-color="rgb(5.099487%, 69.352722%, 95.037842%)" offset="0.78125"/><stop stop-opacity="1" stop-color="rgb(5.099487%, 69.682312%, 95.10498%)" offset="0.789062"/><stop stop-opacity="1" stop-color="rgb(5.099487%, 70.013428%, 95.172119%)" offset="0.796875"/><stop stop-opacity="1" stop-color="rgb(5.099487%, 70.344543%, 95.239258%)" offset="0.804687"/><stop stop-opacity="1" stop-color="rgb(5.099487%, 70.549011%, 95.280457%)" offset="0.8125"/><stop stop-opacity="1" stop-color="rgb(5.099487%, 70.588684%, 95.289612%)" offset="0.875"/><stop stop-opacity="1" stop-color="rgb(5.099487%, 70.588684%, 95.289612%)" offset="1"/></linearGradient><clipPath id="7989d52ea2"><path d="M 177 345 L 181 345 L 181 348.183594 L 177 348.183594 Z M 177 345 " clip-rule="nonzero"/></clipPath><clipPath id="de1f373c10"><path d="M 173.761719 310 L 179 310 L 179 344 L 173.761719 344 Z M 173.761719 310 " clip-rule="nonzero"/></clipPath><clipPath id="a90b238280"><path d="M 181 299.433594 L 195 299.433594 L 195 306 L 181 306 Z M 181 299.433594 " clip-rule="nonzero"/></clipPath><clipPath id="f9d77ca22f"><path d="M 196 310 L 201.511719 310 L 201.511719 344 L 196 344 Z M 196 310 " clip-rule="nonzero"/></clipPath><clipPath id="4093ef8a42"><path d="M 194 346 L 198 346 L 198 348.183594 L 194 348.183594 Z M 194 346 " clip-rule="nonzero"/></clipPath></defs><g transform="matrix(1, 0, 0, 1, 27, 169)"><g clip-path="url(#b69bc63717)"><g clip-path="url(#c5e85adf85)"><g clip-path="url(#6eea695da5)"><g><g clip-path="url(#b510a777bf)"><g clip-path="url(#f340b83dcd)"><g clip-path="url(#f1a7962d9f)"><path fill="#fdf8e1" d="M 0.371094 0.550781 L 23.15625 0.550781 L 23.15625 23.339844 L 0.371094 23.339844 Z M 0.371094 0.550781 " fill-opacity="1" fill-rule="nonzero"/></g></g></g></g></g></g><g clip-path="url(#e05a157f4f)"><g clip-path="url(#412d97f655)"><g transform="matrix(1, 0, 0, 1, 3, 4)"><g clip-path="url(#fe92b0552d)"><g clip-path="url(#b14296f193)"><g clip-path="url(#6155e8ffff)"><path fill="#31262a" d="M 0.964844 0.144531 L 16.566406 0.144531 L 16.566406 15.746094 L 0.964844 15.746094 Z M 0.964844 0.144531 " fill-opacity="1" fill-rule="nonzero"/></g></g></g></g></g></g></g></g><g transform="matrix(1, 0, 0, 1, 324, 169)"><g clip-path="url(#5bab0955d9)"><g clip-path="url(#2311d8f594)"><g clip-path="url(#1d3d2601ae)"><g transform="matrix(1, 0, 0, 1, -0.000000000000056843, 0)"><g clip-path="url(#7b959648f2)"><g clip-path="url(#e4792b6920)"><g clip-path="url(#8d378e210a)"><path fill="#fdf8e1" d="M 0.84375 0.550781 L 23.628906 0.550781 L 23.628906 23.339844 L 0.84375 23.339844 Z M 0.84375 0.550781 " fill-opacity="1" fill-rule="nonzero"/></g></g></g></g></g></g><g clip-path="url(#b94e836b4d)"><g clip-path="url(#e42e701e11)"><g transform="matrix(1, 0, 0, 1, 4, 4)"><g clip-path="url(#211805762a)"><g clip-path="url(#d66b4fb03c)"><g clip-path="url(#ff2a2f8e34)"><path fill="#31262a" d="M 0.433594 0.144531 L 16.035156 0.144531 L 16.035156 15.746094 L 0.433594 15.746094 Z M 0.433594 0.144531 " fill-opacity="1" fill-rule="nonzero"/></g></g></g></g></g></g></g></g><path fill="#00adb8" d="M 138.617188 277.597656 C 138.617188 277.597656 93.269531 215.867188 112.265625 164.1875 C 131.238281 112.484375 187.636719 125.15625 187.636719 125.15625 C 187.636719 125.136719 143.890625 102.457031 95.925781 140.449219 C 47.945312 178.417969 28.433594 126.191406 28.433594 126.191406 C 28.433594 126.191406 20 152.582031 54 175.265625 C 87.996094 197.949219 70.605469 243.839844 138.617188 277.597656 Z M 138.617188 277.597656 " fill-opacity="1" fill-rule="evenodd"/><g clip-path="url(#827304c7cb)"><path fill="#00adb8" d="M 66.398438 101.402344 C 77.164062 101.402344 85.890625 110.148438 85.890625 120.925781 C 85.890625 131.699219 77.164062 140.449219 66.398438 140.449219 C 55.613281 140.449219 46.886719 131.699219 46.886719 120.925781 C 46.886719 110.148438 55.613281 101.402344 66.398438 101.402344 Z M 66.398438 101.402344 " fill-opacity="1" fill-rule="evenodd"/></g><path fill="#f33c3e" d="M 236.675781 277.597656 C 236.675781 277.597656 282.003906 215.867188 263.027344 164.1875 C 244.054688 112.484375 187.636719 125.15625 187.636719 125.15625 C 187.636719 125.136719 231.402344 102.457031 279.367188 140.449219 C 327.347656 178.417969 346.839844 126.191406 346.839844 126.191406 C 346.839844 126.191406 355.273438 152.582031 321.277344 175.265625 C 287.289062 197.941406 304.667969 243.839844 236.675781 277.597656 Z M 236.675781 277.597656 " fill-opacity="1" fill-rule="evenodd"/><g clip-path="url(#2425654db3)"><path fill="#f33c3e" d="M 308.894531 101.402344 C 298.109375 101.402344 289.382812 110.148438 289.382812 120.925781 C 289.382812 131.699219 298.109375 140.449219 308.894531 140.449219 C 319.660156 140.449219 328.40625 131.699219 328.40625 120.925781 C 328.40625 110.148438 319.660156 101.402344 308.894531 101.402344 Z M 308.894531 101.402344 " fill-opacity="1" fill-rule="evenodd"/></g><g clip-path="url(#d3d60b4ed7)"><path fill="#fd9c00" d="M 130.929688 181.308594 C 141.660156 222.757812 233.621094 222.757812 244.363281 181.308594 C 267.375 254.785156 187.636719 296.3125 187.636719 296.3125 C 187.636719 296.3125 107.898438 254.785156 130.929688 181.308594 Z M 130.929688 181.308594 " fill-opacity="1" fill-rule="evenodd"/></g><path fill="#fd9c00" d="M 187.636719 148.339844 C 201.035156 148.339844 211.894531 159.207031 211.894531 172.609375 C 211.894531 186.011719 201.03125 196.882812 187.636719 196.882812 C 174.242188 196.882812 163.378906 186.011719 163.378906 172.609375 C 163.378906 159.207031 174.238281 148.339844 187.636719 148.339844 Z M 187.636719 148.339844 " fill-opacity="1" fill-rule="evenodd"/><g clip-path="url(#af709a5b98)"><g clip-path="url(#54d7f7282a)"><path fill="url(#f6414a0ce8)" d="M 153.644531 26.566406 L 153.644531 122.417969 L 221.144531 122.417969 L 221.144531 26.566406 Z M 153.644531 26.566406 " fill-rule="nonzero"/></g></g><g clip-path="url(#7989d52ea2)"><path fill="#1d1d1b" d="M 177.773438 346.039062 C 177.765625 346.300781 177.761719 346.554688 177.769531 346.804688 C 177.730469 347.316406 177.972656 347.671875 178.464844 347.820312 C 178.925781 347.945312 179.46875 348.195312 179.933594 347.992188 C 180.359375 347.78125 180.523438 346.917969 180.566406 345.875 C 179.875 346.0625 179.113281 346.066406 178.417969 346.085938 C 178.214844 346.074219 177.992188 346.0625 177.773438 346.039062 Z M 177.773438 346.039062 " fill-opacity="1" fill-rule="nonzero"/></g><g clip-path="url(#de1f373c10)"><path fill="#1d1d1b" d="M 177.441406 342.984375 C 177.480469 342.992188 177.519531 343 177.554688 343.007812 C 177.605469 343.019531 177.65625 343.027344 177.703125 343.039062 C 177.722656 343.042969 177.742188 343.046875 177.765625 343.046875 C 177.808594 343.054688 177.851562 343.0625 177.894531 343.066406 C 177.917969 343.070312 177.9375 343.074219 177.960938 343.078125 C 178.0625 343.089844 178.164062 343.101562 178.269531 343.109375 C 178.421875 343.113281 178.578125 343.117188 178.730469 343.117188 C 178.722656 343.09375 178.71875 343.070312 178.71875 343.046875 C 178.730469 342.007812 178.738281 340.964844 178.746094 339.921875 C 178.753906 338.503906 178.765625 337.082031 178.777344 335.664062 C 178.789062 334.226562 178.800781 332.785156 178.8125 331.347656 C 178.824219 329.949219 178.835938 328.550781 178.84375 327.152344 C 178.855469 325.691406 178.867188 324.234375 178.878906 322.773438 C 178.890625 321.316406 178.902344 319.859375 178.914062 318.402344 C 178.925781 316.921875 178.9375 315.441406 178.949219 313.960938 C 178.953125 313.320312 178.957031 312.679688 178.964844 312.039062 C 178.964844 311.734375 178.96875 311.429688 178.972656 311.121094 C 178.972656 310.914062 178.972656 310.703125 178.972656 310.496094 C 178.84375 310.5 178.710938 310.503906 178.585938 310.511719 C 178.460938 310.519531 178.335938 310.53125 178.210938 310.542969 C 178.167969 310.5625 178.117188 310.574219 178.070312 310.574219 C 178.042969 310.574219 178.015625 310.570312 177.988281 310.5625 C 177.96875 310.5625 177.949219 310.566406 177.929688 310.570312 C 177.714844 310.589844 177.5 310.628906 177.320312 310.660156 C 177.011719 310.722656 176.703125 310.796875 176.402344 310.894531 C 176.207031 310.960938 176.015625 311.039062 175.832031 311.125 C 175.691406 311.199219 175.554688 311.277344 175.417969 311.359375 C 175.300781 311.441406 175.191406 311.527344 175.082031 311.617188 C 175.007812 311.683594 174.941406 311.753906 174.875 311.824219 C 174.816406 311.898438 174.761719 311.972656 174.710938 312.046875 C 174.640625 312.152344 174.578125 312.261719 174.519531 312.375 C 174.519531 312.378906 174.519531 312.378906 174.515625 312.382812 L 174.503906 312.410156 C 174.449219 312.523438 174.402344 312.640625 174.363281 312.757812 C 174.308594 312.917969 174.265625 313.082031 174.230469 313.246094 C 174.195312 313.433594 174.167969 313.625 174.152344 313.816406 C 174.144531 313.890625 174.144531 313.964844 174.144531 314.042969 C 174.152344 314.070312 174.160156 314.101562 174.15625 314.132812 C 174.15625 314.160156 174.15625 314.191406 174.15625 314.222656 C 174.164062 314.257812 174.164062 314.300781 174.15625 314.335938 C 174.148438 315.429688 174.136719 316.519531 174.125 317.609375 C 174.117188 318.765625 174.105469 319.917969 174.09375 321.074219 C 174.085938 322.238281 174.074219 323.40625 174.0625 324.570312 C 174.054688 325.714844 174.042969 326.863281 174.03125 328.007812 C 174.023438 329.15625 174.011719 330.300781 174 331.445312 C 173.992188 332.578125 173.980469 333.707031 173.96875 334.839844 C 173.960938 335.960938 173.949219 337.085938 173.941406 338.207031 C 173.9375 338.378906 173.9375 338.546875 173.933594 338.714844 C 173.933594 338.71875 173.933594 338.71875 173.933594 338.722656 C 173.9375 338.8125 173.941406 338.902344 173.941406 338.992188 C 173.945312 339.207031 173.945312 339.421875 173.953125 339.636719 C 173.964844 339.808594 173.984375 339.984375 174.015625 340.15625 C 174.019531 340.171875 174.023438 340.1875 174.023438 340.207031 C 174.269531 340.953125 174.742188 341.613281 175.386719 342.066406 C 175.511719 342.15625 175.636719 342.238281 175.769531 342.320312 C 175.792969 342.332031 175.8125 342.34375 175.835938 342.355469 C 175.855469 342.371094 175.878906 342.382812 175.902344 342.394531 C 175.921875 342.40625 175.945312 342.417969 175.96875 342.433594 C 176.011719 342.457031 176.058594 342.480469 176.101562 342.503906 C 176.125 342.515625 176.148438 342.527344 176.171875 342.535156 C 176.214844 342.558594 176.261719 342.582031 176.308594 342.601562 C 176.671875 342.769531 177.050781 342.898438 177.441406 342.984375 Z M 177.441406 342.984375 " fill-opacity="1" fill-rule="nonzero"/></g><path fill="#1d1d1b" d="M 180.535156 343.671875 C 179.96875 343.664062 179.402344 343.652344 178.835938 343.644531 C 178.804688 343.652344 178.769531 343.652344 178.738281 343.652344 C 178.726562 343.652344 178.714844 343.652344 178.703125 343.652344 C 178.53125 343.652344 178.359375 343.648438 178.1875 343.632812 C 178.183594 343.632812 178.179688 343.632812 178.179688 343.632812 C 178.164062 343.632812 178.148438 343.632812 178.136719 343.628906 C 178.109375 343.628906 178.085938 343.625 178.0625 343.621094 C 177.964844 343.609375 177.867188 343.597656 177.769531 343.582031 C 177.761719 343.578125 177.75 343.578125 177.738281 343.574219 C 177.722656 343.574219 177.707031 343.570312 177.691406 343.566406 C 177.65625 343.5625 177.625 343.554688 177.59375 343.550781 C 177.570312 343.546875 177.550781 343.542969 177.527344 343.539062 C 177.503906 343.535156 177.484375 343.527344 177.460938 343.523438 C 177.441406 343.519531 177.417969 343.515625 177.398438 343.511719 C 177.039062 343.433594 176.6875 343.328125 176.347656 343.191406 C 176.386719 343.667969 176.441406 344.144531 176.503906 344.617188 C 176.535156 345.0625 176.855469 345.296875 177.277344 345.421875 C 177.347656 345.445312 177.421875 345.460938 177.5 345.476562 C 177.519531 345.480469 177.539062 345.484375 177.558594 345.488281 C 177.570312 345.492188 177.582031 345.492188 177.59375 345.496094 C 177.617188 345.5 177.636719 345.5 177.660156 345.503906 C 177.679688 345.507812 177.699219 345.511719 177.71875 345.511719 C 177.726562 345.515625 177.734375 345.515625 177.742188 345.515625 C 177.757812 345.519531 177.777344 345.519531 177.792969 345.523438 C 178.269531 345.574219 178.773438 345.550781 179.097656 345.542969 C 179.542969 345.492188 180.097656 345.476562 180.578125 345.332031 C 180.597656 345.328125 180.617188 345.320312 180.636719 345.3125 C 180.652344 345.308594 180.664062 345.304688 180.679688 345.300781 C 180.726562 345.285156 180.773438 345.265625 180.820312 345.246094 C 180.828125 345.242188 180.835938 345.238281 180.84375 345.234375 C 180.878906 345.21875 180.910156 345.203125 180.941406 345.1875 C 180.949219 345.183594 180.960938 345.175781 180.972656 345.171875 C 180.992188 345.160156 181.011719 345.148438 181.03125 345.136719 C 181.039062 345.132812 181.046875 345.125 181.054688 345.121094 C 181.066406 345.113281 181.078125 345.105469 181.089844 345.097656 C 181.253906 344.988281 181.390625 344.84375 181.488281 344.65625 C 181.617188 344.347656 181.6875 344.023438 181.726562 343.691406 C 181.503906 343.6875 181.277344 343.683594 181.054688 343.679688 C 180.882812 343.679688 180.707031 343.675781 180.535156 343.671875 Z M 180.535156 343.671875 " fill-opacity="1" fill-rule="nonzero"/><path fill="#1d1d1b" d="M 195.003906 309.980469 C 195.035156 309.96875 195.070312 309.960938 195.105469 309.960938 C 195.144531 309.960938 195.183594 309.960938 195.226562 309.960938 C 195.472656 309.960938 195.722656 309.964844 195.972656 309.972656 C 195.984375 309.972656 195.992188 309.972656 196.003906 309.972656 C 196.070312 309.972656 196.136719 309.976562 196.203125 309.980469 C 196.226562 309.980469 196.25 309.980469 196.277344 309.984375 C 196.289062 309.984375 196.300781 309.984375 196.3125 309.984375 C 196.371094 309.988281 196.429688 309.992188 196.492188 309.996094 C 196.492188 309.996094 196.496094 309.996094 196.496094 309.996094 C 196.761719 310.011719 197.023438 310.035156 197.285156 310.070312 C 197.316406 307.113281 198.148438 303.164062 195.042969 301.53125 C 194.894531 301.460938 194.742188 301.402344 194.589844 301.34375 C 194.332031 302.292969 194.027344 303.234375 193.558594 304.101562 C 195.296875 305.148438 195.121094 307.539062 195.003906 309.980469 Z M 195.003906 309.980469 " fill-opacity="1" fill-rule="nonzero"/><path fill="#1d1d1b" d="M 179.5 310.515625 C 179.496094 310.765625 179.496094 311.011719 179.496094 311.261719 C 179.492188 311.578125 179.488281 311.894531 179.488281 312.214844 C 179.480469 312.957031 179.476562 313.699219 179.46875 314.445312 C 179.457031 315.933594 179.445312 317.421875 179.433594 318.914062 C 179.425781 320.351562 179.410156 321.792969 179.402344 323.234375 C 179.390625 324.65625 179.378906 326.082031 179.367188 327.507812 C 179.355469 328.976562 179.34375 330.445312 179.332031 331.914062 C 179.320312 333.320312 179.308594 334.726562 179.300781 336.136719 C 179.289062 337.527344 179.277344 338.921875 179.265625 340.3125 C 179.261719 341.226562 179.253906 342.136719 179.246094 343.050781 C 179.246094 343.078125 179.242188 343.101562 179.234375 343.125 C 179.65625 343.132812 180.082031 343.140625 180.507812 343.148438 C 180.683594 343.148438 180.859375 343.152344 181.035156 343.15625 C 181.101562 343.15625 181.171875 343.15625 181.242188 343.160156 C 181.414062 343.164062 181.585938 343.164062 181.761719 343.167969 C 181.933594 343.171875 182.105469 343.171875 182.277344 343.175781 C 182.300781 343.175781 182.324219 343.175781 182.347656 343.179688 C 182.351562 343.09375 182.355469 343.011719 182.363281 342.929688 C 182.363281 342.917969 182.359375 342.910156 182.359375 342.902344 C 182.375 341.515625 182.382812 340.132812 182.394531 338.746094 C 182.410156 337.308594 182.421875 335.867188 182.433594 334.429688 C 182.445312 333.023438 182.457031 331.617188 182.46875 330.210938 C 182.480469 328.730469 182.492188 327.25 182.503906 325.765625 C 182.519531 324.363281 182.53125 322.964844 182.542969 321.5625 C 182.550781 320.148438 182.566406 318.734375 182.578125 317.320312 C 182.589844 315.910156 182.601562 314.5 182.613281 313.089844 C 182.621094 312.21875 182.628906 311.351562 182.636719 310.480469 C 182.359375 310.484375 182.085938 310.488281 181.808594 310.492188 C 181.039062 310.5 180.269531 310.507812 179.5 310.515625 Z M 179.5 310.515625 " fill-opacity="1" fill-rule="nonzero"/><path fill="#1d1d1b" d="M 179.242188 309.933594 C 179.285156 309.933594 179.324219 309.945312 179.359375 309.964844 C 179.496094 309.960938 179.628906 309.960938 179.765625 309.960938 C 179.804688 309.960938 179.84375 309.960938 179.886719 309.960938 C 179.925781 309.960938 179.960938 309.96875 179.996094 309.984375 C 180.332031 309.980469 180.664062 309.976562 181 309.972656 C 181 309.78125 181.042969 309.570312 181.023438 309.429688 C 181.046875 308.621094 181.105469 307.816406 181.179688 307.015625 C 181.191406 305.890625 181.726562 305.089844 182.503906 304.542969 C 182.253906 304.171875 182.035156 303.777344 181.835938 303.378906 C 181.574219 302.816406 181.402344 302.21875 181.296875 301.605469 C 180.921875 301.753906 180.558594 301.925781 180.210938 302.117188 C 178.421875 303.460938 178.628906 305.945312 178.429688 307.9375 C 178.378906 308.632812 178.3125 309.316406 178.324219 310.007812 C 178.585938 309.988281 178.847656 309.976562 179.113281 309.96875 C 179.148438 309.945312 179.195312 309.933594 179.242188 309.933594 Z M 179.242188 309.933594 " fill-opacity="1" fill-rule="nonzero"/><g clip-path="url(#a90b238280)"><path fill="#1d1d1b" d="M 192.839844 304.289062 C 192.867188 304.25 192.890625 304.210938 192.914062 304.167969 C 192.929688 304.144531 192.945312 304.121094 192.957031 304.097656 C 192.980469 304.0625 193 304.027344 193.019531 303.992188 C 193.03125 303.96875 193.042969 303.949219 193.054688 303.929688 C 193.066406 303.910156 193.074219 303.890625 193.085938 303.871094 C 193.144531 303.765625 193.203125 303.65625 193.253906 303.550781 C 193.613281 302.789062 193.847656 302.046875 194.074219 301.253906 C 194.078125 301.230469 194.085938 301.210938 194.089844 301.1875 C 194.125 301.054688 194.164062 300.925781 194.195312 300.796875 C 194.207031 300.75 194.21875 300.707031 194.230469 300.664062 C 194.265625 300.53125 194.296875 300.398438 194.328125 300.261719 C 194.328125 300.257812 194.328125 300.253906 194.328125 300.25 C 194.21875 300.105469 194.027344 300.035156 193.863281 299.96875 C 193.265625 299.796875 192.644531 299.722656 192.027344 299.648438 C 190.277344 299.429688 188.507812 299.511719 186.753906 299.640625 C 185.191406 299.765625 183.632812 299.9375 182.109375 300.3125 C 181.988281 300.320312 181.832031 300.382812 181.675781 300.429688 C 181.679688 300.511719 181.683594 300.59375 181.699219 300.664062 C 181.707031 300.738281 181.710938 300.8125 181.71875 300.886719 C 181.722656 300.921875 181.726562 300.957031 181.730469 300.992188 C 181.738281 301.046875 181.746094 301.101562 181.753906 301.15625 C 181.753906 301.175781 181.757812 301.199219 181.761719 301.222656 C 181.761719 301.230469 181.765625 301.242188 181.765625 301.25 C 181.773438 301.285156 181.777344 301.320312 181.78125 301.355469 C 181.785156 301.378906 181.789062 301.402344 181.792969 301.421875 C 181.972656 302.445312 182.355469 303.417969 182.949219 304.269531 C 182.949219 304.269531 182.953125 304.273438 182.953125 304.273438 C 182.976562 304.308594 183 304.339844 183.023438 304.375 C 183.046875 304.410156 183.074219 304.441406 183.097656 304.476562 C 183.109375 304.492188 183.121094 304.507812 183.136719 304.523438 C 183.140625 304.527344 183.144531 304.535156 183.148438 304.539062 C 183.171875 304.570312 183.195312 304.601562 183.222656 304.632812 C 183.238281 304.652344 183.253906 304.671875 183.269531 304.691406 C 183.285156 304.710938 183.304688 304.730469 183.320312 304.75 C 183.515625 304.933594 183.753906 305.066406 183.984375 305.207031 C 184.476562 305.058594 184.96875 304.902344 185.476562 304.824219 C 186.585938 304.652344 187.707031 304.578125 188.828125 304.59375 C 189.375 304.605469 189.921875 304.640625 190.464844 304.675781 C 191.144531 304.691406 191.847656 304.871094 192.519531 304.738281 C 192.535156 304.734375 192.546875 304.730469 192.558594 304.726562 C 192.589844 304.664062 192.632812 304.601562 192.675781 304.546875 C 192.71875 304.480469 192.761719 304.414062 192.804688 304.347656 C 192.816406 304.328125 192.828125 304.308594 192.839844 304.289062 Z M 192.839844 304.289062 " fill-opacity="1" fill-rule="nonzero"/></g><path fill="#1d1d1b" d="M 196.859375 343.628906 C 196.84375 343.632812 196.828125 343.632812 196.8125 343.632812 C 196.808594 343.632812 196.804688 343.632812 196.796875 343.632812 C 196.628906 343.648438 196.457031 343.652344 196.285156 343.652344 C 196.277344 343.652344 196.265625 343.652344 196.253906 343.652344 C 196.222656 343.652344 196.1875 343.652344 196.15625 343.644531 C 196.117188 343.644531 196.078125 343.644531 196.039062 343.648438 C 195.863281 343.648438 195.6875 343.652344 195.511719 343.65625 C 194.886719 343.664062 194.257812 343.675781 193.632812 343.6875 C 193.632812 343.699219 193.632812 343.714844 193.632812 343.730469 C 193.640625 343.804688 193.648438 343.878906 193.65625 343.953125 C 193.65625 343.953125 193.65625 343.953125 193.65625 343.957031 C 193.691406 344.285156 193.765625 344.609375 193.890625 344.921875 C 193.992188 345.109375 194.128906 345.25 194.292969 345.363281 C 194.300781 345.367188 194.3125 345.375 194.320312 345.378906 C 194.339844 345.394531 194.359375 345.40625 194.378906 345.417969 C 194.425781 345.441406 194.472656 345.464844 194.519531 345.488281 C 194.535156 345.496094 194.550781 345.503906 194.566406 345.511719 C 194.601562 345.523438 194.632812 345.539062 194.667969 345.550781 C 194.6875 345.558594 194.710938 345.566406 194.734375 345.574219 C 194.746094 345.578125 194.757812 345.582031 194.769531 345.585938 C 194.78125 345.585938 194.792969 345.589844 194.804688 345.59375 C 195.285156 345.738281 195.839844 345.757812 196.285156 345.804688 C 196.609375 345.8125 197.109375 345.839844 197.585938 345.785156 C 197.621094 345.78125 197.65625 345.777344 197.6875 345.773438 C 197.769531 345.761719 197.855469 345.746094 197.933594 345.730469 C 197.949219 345.726562 197.964844 345.722656 197.980469 345.71875 C 198 345.714844 198.023438 345.707031 198.042969 345.703125 C 198.0625 345.695312 198.085938 345.691406 198.105469 345.683594 C 198.523438 345.5625 198.84375 345.324219 198.875 344.882812 C 198.9375 344.410156 198.992188 343.933594 199.03125 343.453125 C 199.035156 343.40625 199.039062 343.363281 199.042969 343.316406 C 199.046875 343.261719 199.050781 343.207031 199.054688 343.152344 C 199.058594 343.105469 199.0625 343.058594 199.066406 343.011719 C 199.066406 343.007812 199.066406 343.003906 199.066406 343.003906 C 198.398438 343.332031 197.664062 343.535156 196.925781 343.621094 C 196.902344 343.625 196.882812 343.625 196.859375 343.628906 Z M 196.859375 343.628906 " fill-opacity="1" fill-rule="nonzero"/><g clip-path="url(#f9d77ca22f)"><path fill="#1d1d1b" d="M 201.050781 338.207031 C 201.039062 337.085938 201.03125 335.960938 201.019531 334.839844 C 201.007812 333.707031 201 332.578125 200.988281 331.445312 C 200.980469 330.300781 200.96875 329.15625 200.957031 328.007812 C 200.949219 326.863281 200.9375 325.714844 200.925781 324.570312 C 200.917969 323.40625 200.90625 322.238281 200.894531 321.074219 C 200.886719 319.917969 200.875 318.765625 200.863281 317.609375 C 200.855469 316.519531 200.84375 315.429688 200.835938 314.339844 C 200.824219 314.300781 200.824219 314.257812 200.832031 314.21875 C 200.832031 314.191406 200.832031 314.160156 200.832031 314.132812 C 200.832031 314.101562 200.835938 314.070312 200.847656 314.042969 C 200.847656 313.96875 200.84375 313.890625 200.839844 313.816406 C 200.824219 313.625 200.796875 313.433594 200.757812 313.246094 C 200.726562 313.078125 200.679688 312.917969 200.628906 312.757812 C 200.585938 312.640625 200.539062 312.523438 200.488281 312.410156 L 200.472656 312.382812 C 200.472656 312.378906 200.472656 312.378906 200.46875 312.375 C 200.410156 312.261719 200.347656 312.152344 200.28125 312.046875 C 200.226562 311.96875 200.171875 311.898438 200.113281 311.828125 C 200.050781 311.753906 199.980469 311.683594 199.910156 311.617188 C 199.800781 311.527344 199.6875 311.441406 199.570312 311.359375 C 199.4375 311.277344 199.300781 311.199219 199.160156 311.125 C 198.972656 311.039062 198.785156 310.960938 198.589844 310.894531 C 198.289062 310.796875 197.980469 310.722656 197.667969 310.660156 C 197.660156 310.660156 197.648438 310.65625 197.636719 310.65625 C 197.609375 310.664062 197.578125 310.667969 197.546875 310.667969 C 197.484375 310.667969 197.421875 310.648438 197.375 310.609375 C 197.273438 310.59375 197.167969 310.578125 197.0625 310.566406 C 196.871094 310.546875 196.679688 310.53125 196.492188 310.519531 C 196.484375 310.914062 196.480469 311.308594 196.472656 311.703125 C 196.453125 313.265625 196.433594 314.828125 196.410156 316.390625 C 196.386719 317.933594 196.367188 319.476562 196.347656 321.019531 C 196.324219 322.597656 196.304688 324.175781 196.28125 325.753906 C 196.257812 327.359375 196.238281 328.96875 196.214844 330.574219 C 196.195312 332.101562 196.175781 333.628906 196.152344 335.15625 C 196.132812 336.742188 196.109375 338.332031 196.089844 339.917969 C 196.074219 340.988281 196.0625 342.054688 196.046875 343.121094 C 196.269531 343.117188 196.492188 343.113281 196.71875 343.109375 C 197.75 343.03125 198.765625 342.675781 199.605469 342.0625 C 200.25 341.613281 200.722656 340.953125 200.964844 340.207031 C 200.96875 340.191406 200.972656 340.171875 200.976562 340.15625 C 201.007812 339.984375 201.027344 339.808594 201.035156 339.636719 C 201.046875 339.421875 201.046875 339.207031 201.050781 338.992188 C 201.050781 338.894531 201.054688 338.796875 201.054688 338.699219 C 201.054688 338.535156 201.050781 338.371094 201.050781 338.207031 Z M 201.050781 338.207031 " fill-opacity="1" fill-rule="nonzero"/></g><g clip-path="url(#4093ef8a42)"><path fill="#1d1d1b" d="M 196.960938 346.347656 C 196.265625 346.328125 195.507812 346.324219 194.816406 346.136719 C 194.859375 347.179688 195.019531 348.042969 195.445312 348.253906 C 195.910156 348.457031 196.453125 348.207031 196.914062 348.085938 C 197.410156 347.933594 197.648438 347.578125 197.613281 347.066406 C 197.617188 346.820312 197.617188 346.5625 197.609375 346.304688 C 197.386719 346.328125 197.167969 346.335938 196.960938 346.347656 Z M 196.960938 346.347656 " fill-opacity="1" fill-rule="nonzero"/></g><path fill="#1d1d1b" d="M 195.519531 343.128906 C 195.539062 341.902344 195.554688 340.671875 195.570312 339.445312 C 195.589844 337.851562 195.613281 336.261719 195.636719 334.667969 C 195.65625 333.152344 195.675781 331.636719 195.699219 330.117188 C 195.71875 328.589844 195.738281 327.0625 195.761719 325.539062 C 195.78125 323.886719 195.804688 322.230469 195.828125 320.578125 C 195.847656 319.027344 195.871094 317.476562 195.890625 315.925781 C 195.914062 314.394531 195.933594 312.867188 195.953125 311.335938 C 195.957031 311.054688 195.960938 310.773438 195.964844 310.492188 C 195.882812 310.492188 195.800781 310.488281 195.71875 310.488281 C 195.683594 310.507812 195.644531 310.519531 195.601562 310.519531 C 195.601562 310.519531 195.601562 310.519531 195.597656 310.519531 C 194.792969 310.507812 193.988281 310.5 193.183594 310.488281 C 193.140625 310.488281 193.101562 310.488281 193.0625 310.488281 C 193.054688 311.183594 193.046875 311.878906 193.039062 312.574219 C 193.023438 314.109375 193.003906 315.644531 192.988281 317.183594 C 192.96875 318.820312 192.953125 320.457031 192.933594 322.097656 C 192.917969 323.632812 192.898438 325.171875 192.882812 326.707031 C 192.867188 328.367188 192.847656 330.023438 192.828125 331.679688 C 192.8125 333.226562 192.792969 334.777344 192.777344 336.324219 C 192.757812 337.949219 192.742188 339.578125 192.722656 341.203125 C 192.714844 341.828125 192.710938 342.449219 192.703125 343.070312 C 192.703125 343.105469 192.703125 343.140625 192.699219 343.175781 C 193.050781 343.171875 193.398438 343.164062 193.75 343.160156 C 194.339844 343.148438 194.929688 343.140625 195.519531 343.128906 Z M 195.519531 343.128906 " fill-opacity="1" fill-rule="nonzero"/><path fill="#1d1d1b" d="M 187.507812 310.425781 C 186.695312 310.433594 185.882812 310.445312 185.070312 310.453125 C 184.433594 310.460938 183.796875 310.46875 183.160156 310.476562 C 183.152344 311.519531 183.144531 312.566406 183.132812 313.613281 C 183.121094 315.015625 183.109375 316.417969 183.097656 317.820312 C 183.085938 319.273438 183.074219 320.726562 183.0625 322.179688 C 183.050781 323.617188 183.035156 325.058594 183.023438 326.5 C 183.011719 327.878906 183 329.257812 182.988281 330.636719 C 182.976562 332.128906 182.964844 333.621094 182.953125 335.113281 C 182.941406 336.515625 182.929688 337.917969 182.917969 339.320312 C 182.90625 340.4375 182.898438 341.550781 182.886719 342.667969 C 182.898438 342.691406 182.902344 342.71875 182.898438 342.75 C 182.890625 342.847656 182.886719 342.949219 182.878906 343.050781 C 182.878906 343.097656 182.875 343.140625 182.871094 343.1875 C 183.476562 343.195312 184.078125 343.207031 184.683594 343.214844 C 185.621094 343.230469 186.558594 343.246094 187.496094 343.261719 C 188.433594 343.246094 189.371094 343.230469 190.304688 343.214844 C 190.929688 343.207031 191.554688 343.195312 192.175781 343.183594 C 192.179688 342.984375 192.179688 342.78125 192.183594 342.582031 C 192.191406 341.785156 192.199219 340.988281 192.210938 340.195312 C 192.226562 338.609375 192.246094 337.023438 192.261719 335.441406 C 192.277344 333.867188 192.296875 332.292969 192.3125 330.722656 C 192.332031 329.066406 192.351562 327.410156 192.367188 325.757812 C 192.386719 324.222656 192.402344 322.6875 192.417969 321.15625 C 192.4375 319.554688 192.457031 317.953125 192.472656 316.351562 C 192.488281 314.785156 192.507812 313.214844 192.523438 311.648438 C 192.527344 311.261719 192.535156 310.871094 192.539062 310.484375 C 191.664062 310.472656 190.792969 310.464844 189.917969 310.453125 C 189.113281 310.445312 188.3125 310.433594 187.507812 310.425781 Z M 187.507812 310.425781 " fill-opacity="1" fill-rule="nonzero"/></svg>